<?xml version="1.0" encoding="utf-8"?>
<svg width="300px" height="300px" viewBox="0 0 300 300" version="1.1" xmlns:xlink="http://www.w3.org/1999/xlink" xmlns="http://www.w3.org/2000/svg">
  <defs>
    <path d="M300 0L300 0L300 300L0 300L0 0L300 0Z" id="path_1" />
    <clipPath id="clip_1">
      <use xlink:href="#path_1" clip-rule="evenodd" fill-rule="evenodd" />
    </clipPath>
  </defs>
  <g id="Frame" clip-path="url(#clip_1)">
    <path d="M300 0L300 0L300 300L0 300L0 0L300 0Z" id="Frame" fill="#FFFFFF" fill-opacity="0" stroke="none" />
    <path d="M22 171.873C22 124.1 94.4535 64 151.913 64C209.373 64 278 124.1 278 171.873C278 219.646 209.373 237 151.913 237C94.4535 237 22 219.645 22 171.873Z" id="Oval" fill="#B2DFDB" fill-rule="evenodd" stroke="none" />
    <path d="M223.613 134.168C225.172 134.168 226.436 135.431 226.436 136.991L226.436 136.991C226.436 138.55 225.172 139.813 223.613 139.813L182.614 139.813C181.054 139.813 179.791 138.55 179.791 136.991L179.791 136.991C179.791 135.431 181.054 134.168 182.614 134.168L223.613 134.168Z" id="Rectangle-2" fill="#FF5252" stroke="none" />
    <path d="M108.094 134.168C109.653 134.168 110.917 135.431 110.917 136.991L110.917 136.991C110.917 138.55 109.653 139.813 108.094 139.813L67.0947 139.813C65.5355 139.813 64.2719 138.55 64.2719 136.991L64.2719 136.991C64.2719 135.431 65.5355 134.168 67.0947 134.168L108.094 134.168Z" id="Rectangle" fill="#FF5252" stroke="none" />
    <path d="M144.625 173.284C147.544 173.284 149.909 175.65 149.909 178.568L149.909 184.131C149.909 187.049 147.544 189.415 144.625 189.415L144.625 189.415C141.706 189.415 139.341 187.049 139.341 184.131L139.341 178.568C139.341 175.65 141.706 173.284 144.625 173.284Z" id="Rectangle-3" fill="#FF5252" stroke="none" />
  </g>
</svg>