<?xml version="1.0" encoding="utf-8"?>
<svg width="300px" height="300px" viewBox="0 0 300 300" version="1.1" xmlns:xlink="http://www.w3.org/1999/xlink" xmlns="http://www.w3.org/2000/svg">
  <defs>
    <path d="M300 0L300 0L300 300L0 300L0 0L300 0Z" id="path_1" />
    <path d="M161.647 106.28L161.533 105.579C161.887 107.752 160.8 110.653 159.1 112.053C155.189 115.274 149.299 120.08 152.483 117.176C157.076 112.987 136.85 121.233 135.399 122.342C133.948 123.452 145.821 121.366 126.463 124.35C107.105 127.334 109.986 127.636 112.951 125.803C112.951 125.803 103.135 127.217 103.135 127.217C115.526 129.295 97.9082 129 95.4769 125.964C94.202 124.371 91.3121 123.208 88.8517 122.461C86.6138 121.782 84.4373 119.579 84.0617 117.271L84.2502 118.429C84.1057 117.541 84.7177 116.837 85.6168 116.869C88.9535 116.986 95.8659 117.346 91.0744 118.217C84.9001 119.339 106.429 119.432 99.2141 120.307C93.9164 120.95 106.603 124.248 125.961 121.264C145.319 118.28 157.953 111.221 148.147 113.574C141.724 115.116 163.784 107.194 157.759 107.348C153.201 107.464 157.631 105.996 160.062 105.273C160.81 105.051 161.522 105.51 161.647 106.28Z" id="path_2" />
    <path d="M67.9456 0.131159L66.7631 0.0506806C70.349 0.294726 74.6799 3.03455 76.4227 6.17789C79.9574 12.5531 84.7857 21.3701 81.5787 16.2444C76.7928 8.59529 82.4735 38.9275 83.6627 41.2734C84.8519 43.6194 85.6747 26.7192 83.7049 54.1359C81.735 81.5525 83.1541 77.7185 81.3784 73.0669C81.3784 73.0669 80.2308 86.9358 80.2308 86.9358C87.5095 70.6977 81.1731 94.66 75.7778 96.9824C73.1638 98.1075 70.6412 101.236 68.735 104.161C66.6613 107.345 62.3039 109.95 58.5136 109.692L60.5788 109.833C59.2314 109.741 58.4249 108.61 58.7976 107.312C60.1093 102.742 62.8996 93.6923 62.6147 100.449C62.2435 109.249 69.5828 79.8787 68.4914 90.0197C67.69 97.4658 76.91 81.2242 78.8798 53.8075C80.8497 26.3908 74.42 6.81734 74.6928 20.9822C74.8715 30.2599 70.2933 -2.46966 68.5101 5.80987C67.1545 12.1042 66.42 5.47041 66.1457 1.9274C66.0633 0.863767 66.8813 0.0587219 67.9456 0.131159Z" id="path_3" />
    <path d="M174.588 53.2497L174.051 51.8157C175.599 55.954 175.004 62.3759 172.697 66.1445C169.133 71.9692 164.951 78.6876 167.542 73.8452C171.728 66.0205 149.132 83.3674 147.722 85.4805C146.313 87.5936 160.701 82.0316 137.073 90.4013C113.446 98.771 117.266 98.7772 120.323 95.1864C120.323 95.1864 108.303 99.2646 108.303 99.2646C125.052 100.596 102.321 103.163 97.9626 98.4927C96.1353 96.5347 93.0953 95.2158 90.1804 94.3442C85.9473 93.0784 81.0896 89.4329 79.5419 85.2945L80.3632 87.4905C79.8807 86.2003 80.6 85.0363 81.9725 84.9186C86.4217 84.5371 94.7851 84.0344 89.1528 86.2637C81.6862 89.2191 109.355 85.633 100.452 88.3555C93.9151 90.3546 111.543 93.6821 135.17 85.3124C158.798 76.9427 172.133 62.9049 160.508 68.557C152.893 72.259 177.975 55.1373 170.304 56.4423C164.421 57.4431 169.735 54.1051 172.532 52.4948C173.336 52.0316 174.263 52.3803 174.588 53.2497Z" id="path_4" />
    <path d="M125.044 24.8807C126.852 26.0233 129.993 28.0087 129.993 28.0087C131.439 41.2668 132.095 47.8958 131.308 43.1903C130.013 35.4512 123.424 59.586 123.575 61.8223C123.727 64.0585 130.914 52.5769 118.694 70.8901C106.475 89.2033 109.192 87.206 109.405 83.059C109.405 83.059 103.09 92.2483 103.09 92.2483C115.716 84.4145 100.968 98.1458 95.3233 97.1199C93.2192 96.7376 90.7096 97.2157 88.3892 97.966C84.1852 99.3253 81.1153 101.262 81.1153 101.262L76.7854 98.5248C75.7568 97.8748 75.6495 96.6805 76.5624 95.876C79.5163 93.2733 85.1772 88.5406 82.3933 93.07C78.7011 99.0773 96.4015 82.0363 91.5617 88.6312C88.0082 93.4736 102.347 86.5941 114.566 68.2809C126.786 49.9677 128.601 33.0311 123.426 43.1288C120.036 49.7425 128.514 24.4649 123.776 29.4096C120.141 33.2038 122.099 28.0459 123.207 25.4404C123.525 24.6929 124.358 24.4467 125.044 24.8807Z" id="path_5" />
    <path d="M5.10722 40.2175L3.90397 40.6906C8.01577 39.0738 14.5182 39.4319 18.415 41.5145C24.5427 44.7893 31.6907 48.6768 26.6007 46.3132C18.4198 42.5144 37.021 63.8875 39.2401 65.1848C41.4591 66.482 35.2457 52.6815 44.6647 75.371C54.0837 98.0605 53.9567 94.3449 50.1628 91.4964C50.1628 91.4964 54.77 103.046 54.77 103.046C55.5528 86.7074 58.9821 108.728 54.3383 113.13C52.4348 114.935 51.1991 117.846 50.4035 120.653C49.1989 124.904 45.6919 129.832 41.5801 131.449L43.6876 130.62C42.3615 131.141 41.1165 130.421 40.9389 129.007C40.3926 124.659 39.6311 116.787 42.0884 122.126C45.3837 129.285 40.7357 102.498 43.842 111.063C46.1228 117.351 48.9245 100.089 39.5055 77.3997C30.0865 54.7102 15.2064 42.2294 21.416 53.3397C25.4831 60.6166 7.02641 36.8182 8.63412 44.234C9.87368 49.9517 6.21529 44.8146 4.47492 42.1623C3.9876 41.4196 4.28054 40.5426 5.10722 40.2175Z" id="path_6" />
    <path d="M109.751 170.502L117.866 187.576C119.335 190.666 120.479 190.394 120.742 186.982C121.427 178.075 124.143 161.59 134.659 151.355C145.114 141.18 163.279 137.183 173.288 135.698C177.208 135.116 177.552 133.426 174.02 131.63L156.136 122.535Q155.85 122.39 155.554 122.268Q155.257 122.146 154.952 122.048Q154.647 121.95 154.335 121.877Q154.023 121.804 153.706 121.756Q153.389 121.708 153.069 121.685Q152.749 121.663 152.429 121.666Q152.108 121.669 151.789 121.698Q151.47 121.727 151.154 121.781Q150.838 121.836 150.527 121.915Q150.217 121.995 149.914 122.099Q149.61 122.203 149.316 122.33Q149.023 122.458 148.74 122.609Q148.457 122.76 148.187 122.934Q147.918 123.107 147.663 123.301Q147.408 123.495 147.169 123.709Q146.93 123.923 146.71 124.156L111.177 161.558Q110.97 161.777 110.779 162.01Q110.589 162.243 110.417 162.49Q110.244 162.737 110.091 162.996Q109.938 163.255 109.805 163.525Q109.671 163.794 109.559 164.074Q109.446 164.353 109.354 164.639Q109.263 164.926 109.194 165.219Q109.124 165.512 109.077 165.809Q109.029 166.106 109.004 166.406Q108.979 166.706 108.977 167.007Q108.975 167.308 108.995 167.609Q109.015 167.909 109.058 168.207Q109.101 168.505 109.166 168.799Q109.231 169.093 109.318 169.381Q109.405 169.669 109.514 169.95Q109.622 170.231 109.751 170.502Z" id="path_7" />
    <path d="M6.12068 80.1402C8.90211 80.2008 12.8897 79.792 18.5678 78.3773C34.5394 74.3979 63.8863 62.4596 63.8863 62.4596C47.4277 78.1763 55.3997 68.4236 73.9398 62.8618C79.8257 61.0961 59.606 62.8323 95.9289 58.2723C77.451 59.6835 64.2453 56.7918 120.594 56.7918C176.943 56.7918 151.656 58.063 144.416 58.2723C99.3283 59.5752 123.392 64.4399 133.327 69.5924C146.995 76.6815 187.435 88.7918 147.254 80.2882C144.576 95.1658 143.267 96.995 140.041 103.379C134.816 113.72 128.566 117.099 129.459 121.798L146.115 170.429C146.744 172.265 146.14 172.642 144.765 171.272L131.515 158.067C128.386 154.948 124.299 149.19 122.387 145.207C118.041 136.155 111.15 121.798 111.15 121.798C139.217 106.351 153.315 69.5924 96.9661 69.5924C51.91 69.5924 16.9122 83.5532 4.69384 89.149C2.07336 90.3492 0 89.0922 0 86.2099L0 84.9007C0 81.2979 2.51874 80.0616 6.12068 80.1402Z" id="path_8" />
    <path d="M67.8678 129.376C81.8031 124.482 55.8743 145.411 63.741 138.964C70.6208 133.326 57.8697 141.241 58.0674 141.423C58.3388 141.673 50.1469 148.122 53.4847 143.866C56.0893 140.544 42.5358 149.291 49.7547 143.737C54.5335 140.059 34.6718 148.004 41.6114 143.866C49.5639 139.123 22.5431 146.207 22.9947 147.196C25.4258 152.516 44.3307 148.534 37.9642 151.463C31.2665 154.544 45.0083 148.997 53.4252 151.463C69.9406 156.3 50.706 151.463 73.7982 151.463C96.8907 151.463 83.4677 152.136 87.3676 153.152C95.5226 149.002 106.805 164.93 108.358 162.255L93.257 134.821L108.358 99.7571C107.3 97.3236 127.741 88.3715 125.895 88.211C124.801 88.116 126.232 88.211 103.14 88.211C80.0476 88.211 95.1736 87.7507 93.257 88.2109C87.676 89.5511 94.4616 92.8822 91.5937 93.2317L82.3095 95.4922C82.3095 95.4922 65.4429 103.756 74.9924 97.0377C84.5419 90.3193 70.6481 95.9915 67.9193 99.8152C65.1906 103.639 45.3287 110.356 58.0674 103.559C70.8063 96.7614 41.6114 109.913 41.6114 109.913C47.7215 99.8206 29.5925 122.95 33.5359 109.392C29.7437 112.451 27.2764 113.737 24.7999 118.833C22.3235 123.93 30.0705 123.073 35.1716 124.105L41.6114 124.105L44.874 125.484C44.874 125.484 47.7362 124.511 53.4847 125.484C59.2331 126.456 54.4716 124.511 58.0674 125.484C61.6632 126.456 30.1553 142.62 67.8678 129.376Z" id="path_9" />
    <clipPath id="clip_1">
      <use xlink:href="#path_1" clip-rule="evenodd" fill-rule="evenodd" />
    </clipPath>
    <clipPath id="clip_2">
      <use xlink:href="#path_2" />
    </clipPath>
    <clipPath id="clip_3">
      <use xlink:href="#path_3" />
    </clipPath>
    <clipPath id="clip_4">
      <use xlink:href="#path_4" />
    </clipPath>
    <clipPath id="clip_5">
      <use xlink:href="#path_5" />
    </clipPath>
    <clipPath id="clip_6">
      <use xlink:href="#path_6" />
    </clipPath>
    <clipPath id="clip_7">
      <use xlink:href="#path_7" />
    </clipPath>
    <clipPath id="clip_8">
      <use xlink:href="#path_8" />
    </clipPath>
    <clipPath id="clip_9">
      <use xlink:href="#path_9" />
    </clipPath>
  </defs>
  <g id="Frame" clip-path="url(#clip_1)">
    <path d="M300 0L300 0L300 300L0 300L0 0L300 0Z" id="Frame" fill="#FFFFFF" fill-opacity="0" stroke="none" />
    <g id="Group" transform="translate(87.98169 41.05594)">
      <path d="M129.117 161.704C130.323 156.569 132.714 150.339 137.407 147.599C142.224 144.786 149.467 145.651 154.947 146.972C159.242 148.009 164.451 152.422 166.77 156.183L190.184 194.164C190.645 194.911 190.63 194.921 190.147 194.187C185.566 187.229 164.343 155.459 160.93 158.78C157.101 162.507 171.755 190.177 172.418 197.647C172.418 197.647 152.77 170.804 151.63 177.415C150.702 182.8 161.451 206.97 165.468 215.747C166.278 217.516 165.969 217.707 164.762 216.181L132.887 175.88C130.146 172.415 128.106 166.005 129.117 161.704Z" id="Rectangle" fill="#1976D2" fill-rule="evenodd" stroke="none" />
      <path d="M134.534 154.458C135.281 151.866 136.568 149.345 138.783 148.15C141.23 146.83 144.81 147.13 148.039 147.874C152.344 148.865 157.574 153.435 160.007 157.123L176.133 181.567C176.434 182.023 176.426 182.028 176.113 181.58C172.909 176.986 157.081 154.554 154.95 156.628C152.577 158.937 163.617 177.989 164.407 182.986C164.407 182.986 150.085 164.263 149.636 168.61C149.265 172.203 157.797 189.196 160.765 194.977C161.313 196.045 161.148 196.154 160.388 195.225L138.571 168.558C135.773 165.139 133.31 158.703 134.534 154.458Z" id="Rectangle" fill="#2196F3" fill-rule="evenodd" stroke="none" />
      <g id="Rectangle-2">
        <use stroke="none" fill="#F7F4BD" xlink:href="#path_2" fill-rule="evenodd" />
        <g clip-path="url(#clip_2)">
          <use xlink:href="#path_2" fill="none" stroke="#000000" stroke-width="2" />
        </g>
      </g>
      <g id="Rectangle">
        <use stroke="none" fill="#F7F4BD" xlink:href="#path_3" fill-rule="evenodd" />
        <g clip-path="url(#clip_3)">
          <use xlink:href="#path_3" fill="none" stroke="#000000" stroke-width="2" />
        </g>
      </g>
      <g id="Rectangle">
        <use stroke="none" fill="#F7F4BD" xlink:href="#path_4" fill-rule="evenodd" />
        <g clip-path="url(#clip_4)">
          <use xlink:href="#path_4" fill="none" stroke="#000000" stroke-width="2" />
        </g>
      </g>
      <g id="Rectangle">
        <use stroke="none" fill="#F7F4BD" xlink:href="#path_5" fill-rule="evenodd" />
        <g clip-path="url(#clip_5)">
          <use xlink:href="#path_5" fill="none" stroke="#000000" stroke-width="2" />
        </g>
      </g>
      <g id="Rectangle">
        <use stroke="none" fill="#F7F4BD" xlink:href="#path_6" fill-rule="evenodd" />
        <g clip-path="url(#clip_6)">
          <use xlink:href="#path_6" fill="none" stroke="#000000" stroke-width="2" />
        </g>
      </g>
      <g id="Rectangle-5">
        <use stroke="none" fill="#F7F4BD" xlink:href="#path_7" fill-rule="evenodd" />
        <g clip-path="url(#clip_7)">
          <use xlink:href="#path_7" fill="none" stroke="#000000" stroke-width="2" />
        </g>
      </g>
      <g id="Rectangle-4">
        <use stroke="none" fill="#F7F4BD" xlink:href="#path_8" fill-rule="evenodd" />
        <g clip-path="url(#clip_8)">
          <use xlink:href="#path_8" fill="none" stroke="#000000" stroke-width="2" />
        </g>
      </g>
    </g>
    <g id="Oval">
      <use stroke="none" fill="#F7F4BD" xlink:href="#path_9" fill-rule="evenodd" />
      <g clip-path="url(#clip_9)">
        <use xlink:href="#path_9" fill="none" stroke="#000000" stroke-width="2" />
      </g>
    </g>
    <path d="M53.4252 116.245C53.4252 111.948 61.8538 108.464 72.251 108.464C82.6482 108.464 91.0768 96.3864 91.0768 100.684C91.0768 104.981 58.1848 112.859 91.0768 120.512C96.2997 121.727 50.2503 124.168 62.3908 120.512C74.5313 116.856 62.3908 116.245 62.3908 116.245C62.3908 116.245 53.4252 120.542 53.4252 116.245Z" id="Oval-2" fill="#FF0000" fill-rule="evenodd" stroke="none" />
  </g>
</svg>