<?xml version="1.0" encoding="utf-8"?>
<svg width="300px" height="300px" viewBox="0 0 300 300" version="1.1" xmlns:xlink="http://www.w3.org/1999/xlink" xmlns="http://www.w3.org/2000/svg">
  <defs>
    <path d="M300 0L300 0L300 300L0 300L0 0L300 0Z" id="path_1" />
    <path d="M161.437 246.085L166.344 245.409Q166.562 245.379 166.781 245.359Q167.001 245.34 167.221 245.331Q167.441 245.323 167.661 245.325Q167.881 245.327 168.101 245.34Q168.321 245.353 168.54 245.376Q168.759 245.4 168.976 245.434Q169.194 245.469 169.409 245.514Q169.625 245.559 169.838 245.614Q170.051 245.669 170.261 245.735Q170.471 245.801 170.678 245.877Q170.885 245.953 171.087 246.039Q171.29 246.125 171.488 246.221Q171.687 246.316 171.88 246.422Q172.073 246.527 172.261 246.642Q172.449 246.757 172.631 246.88Q172.813 247.004 172.989 247.137Q173.165 247.269 173.334 247.41Q173.504 247.551 173.666 247.7Q173.828 247.849 173.982 248.006Q174.137 248.163 174.284 248.327Q174.43 248.491 174.569 248.662Q174.707 248.833 174.837 249.011Q174.967 249.189 175.089 249.373Q175.21 249.556 175.322 249.746Q175.434 249.936 175.536 250.13Q175.639 250.325 175.732 250.525Q175.825 250.724 175.908 250.928Q175.991 251.132 176.064 251.34Q176.137 251.548 176.2 251.759Q176.263 251.97 176.315 252.184Q176.367 252.398 176.409 252.614Q176.451 252.83 176.482 253.048L178.038 263.909Q178.07 264.128 178.09 264.349Q178.111 264.57 178.121 264.791Q178.13 265.013 178.129 265.234Q178.128 265.456 178.116 265.677Q178.104 265.899 178.081 266.119Q178.058 266.34 178.024 266.559Q177.99 266.778 177.945 266.995Q177.901 267.212 177.846 267.427Q177.79 267.641 177.725 267.853Q177.659 268.065 177.583 268.273Q177.507 268.481 177.421 268.686Q177.334 268.89 177.238 269.09Q177.142 269.289 177.036 269.484Q176.93 269.679 176.815 269.868Q176.7 270.057 176.575 270.241Q176.45 270.424 176.317 270.601Q176.184 270.778 176.042 270.949Q175.9 271.119 175.75 271.282Q175.599 271.445 175.441 271.6Q175.283 271.756 175.118 271.903Q174.952 272.051 174.78 272.19Q174.607 272.329 174.428 272.46Q174.249 272.59 174.064 272.712Q173.878 272.833 173.687 272.946Q173.496 273.058 173.299 273.161Q173.103 273.263 172.902 273.356Q172.7 273.449 172.495 273.532Q172.289 273.615 172.08 273.688Q171.87 273.76 171.658 273.823Q171.445 273.885 171.229 273.937Q171.014 273.988 170.796 274.029Q170.578 274.07 170.358 274.101L165.451 274.777Q165.233 274.807 165.014 274.827Q164.794 274.846 164.574 274.855Q164.354 274.863 164.134 274.861Q163.914 274.859 163.694 274.846Q163.474 274.833 163.255 274.81Q163.036 274.786 162.819 274.752Q162.601 274.717 162.386 274.672Q162.17 274.627 161.957 274.572Q161.744 274.517 161.534 274.451Q161.324 274.385 161.117 274.309Q160.91 274.233 160.708 274.147Q160.505 274.061 160.307 273.965Q160.108 273.87 159.915 273.764Q159.722 273.659 159.534 273.544Q159.346 273.43 159.164 273.306Q158.982 273.182 158.806 273.05Q158.63 272.917 158.461 272.776Q158.292 272.635 158.13 272.486Q157.967 272.337 157.813 272.18Q157.658 272.023 157.512 271.859Q157.365 271.695 157.226 271.524Q157.088 271.353 156.958 271.175Q156.828 270.997 156.707 270.813Q156.585 270.63 156.473 270.44Q156.361 270.25 156.259 270.056Q156.156 269.861 156.063 269.661Q155.97 269.462 155.887 269.258Q155.804 269.054 155.731 268.846Q155.658 268.638 155.595 268.427Q155.533 268.216 155.48 268.002Q155.428 267.788 155.386 267.572Q155.344 267.356 155.313 267.138L153.757 256.277Q153.725 256.058 153.705 255.837Q153.684 255.616 153.675 255.395Q153.665 255.173 153.666 254.952Q153.667 254.73 153.679 254.509Q153.691 254.287 153.714 254.067Q153.737 253.846 153.771 253.627Q153.805 253.408 153.85 253.191Q153.894 252.974 153.95 252.759Q154.005 252.545 154.07 252.333Q154.136 252.121 154.212 251.913Q154.288 251.705 154.375 251.5Q154.461 251.296 154.557 251.096Q154.653 250.897 154.759 250.702Q154.865 250.507 154.98 250.318Q155.096 250.129 155.22 249.945Q155.345 249.762 155.478 249.585Q155.611 249.408 155.753 249.237Q155.895 249.067 156.046 248.904Q156.196 248.741 156.354 248.586Q156.512 248.43 156.677 248.283Q156.843 248.135 157.015 247.996Q157.188 247.857 157.367 247.726Q157.546 247.596 157.732 247.474Q157.917 247.353 158.108 247.24Q158.299 247.128 158.496 247.025Q158.692 246.923 158.893 246.83Q159.095 246.737 159.3 246.654Q159.506 246.571 159.715 246.498Q159.925 246.426 160.138 246.363Q160.35 246.301 160.566 246.249Q160.781 246.198 160.999 246.157Q161.217 246.115 161.437 246.085Z" id="path_2" />
    <path d="M66.8351 139.852C62.2861 127.037 65.8993 113.923 74.9052 110.561C83.9111 107.2 94.8995 114.865 99.4485 127.68C103.997 140.496 100.384 153.61 91.3783 156.971C82.3724 160.332 71.384 152.668 66.8351 139.852Z" id="path_3" />
    <path d="M163.757 127.512C168.304 114.691 179.288 107.024 188.29 110.387C197.292 113.749 200.904 126.868 196.357 139.688C191.81 152.509 180.826 160.176 171.824 156.814C162.821 153.451 159.21 140.332 163.757 127.512Z" id="path_4" />
    <path d="M72.6506 138C69.3398 128.915 71.9695 119.618 78.524 117.236C85.0785 114.853 93.0759 120.286 96.3866 129.371C99.6973 138.456 97.0676 147.753 90.5131 150.135C83.9586 152.518 75.9613 147.085 72.6506 138Z" id="path_5" />
    <path d="M167.983 138C164.672 128.915 167.302 119.618 173.856 117.236C180.411 114.853 188.408 120.286 191.719 129.371C195.03 138.456 192.4 147.753 185.845 150.135C179.291 152.518 171.294 147.085 167.983 138Z" id="path_6" />
    <path d="M99.0159 245.326L103.923 246.002Q104.143 246.032 104.361 246.074Q104.578 246.115 104.794 246.166Q105.01 246.218 105.222 246.28Q105.435 246.343 105.645 246.415Q105.854 246.488 106.06 246.571Q106.265 246.654 106.466 246.747Q106.668 246.84 106.864 246.942Q107.061 247.045 107.252 247.157Q107.443 247.27 107.628 247.391Q107.814 247.513 107.993 247.643Q108.172 247.774 108.345 247.913Q108.517 248.052 108.683 248.2Q108.848 248.347 109.006 248.502Q109.164 248.658 109.314 248.821Q109.465 248.984 109.606 249.154Q109.748 249.325 109.882 249.502Q110.015 249.679 110.14 249.862Q110.264 250.046 110.38 250.235Q110.495 250.424 110.601 250.619Q110.707 250.814 110.803 251.013Q110.899 251.213 110.985 251.417Q111.072 251.622 111.148 251.83Q111.224 252.038 111.289 252.25Q111.355 252.461 111.41 252.676Q111.466 252.891 111.51 253.108Q111.555 253.325 111.589 253.544Q111.622 253.763 111.645 253.984Q111.668 254.204 111.681 254.426Q111.693 254.647 111.694 254.869Q111.695 255.09 111.685 255.312Q111.676 255.533 111.655 255.754Q111.634 255.975 111.603 256.194L110.047 267.055Q110.016 267.273 109.974 267.489Q109.932 267.705 109.88 267.919Q109.827 268.133 109.765 268.344Q109.702 268.555 109.629 268.763Q109.556 268.971 109.473 269.175Q109.39 269.379 109.297 269.578Q109.204 269.778 109.101 269.973Q108.999 270.167 108.886 270.357Q108.774 270.547 108.653 270.73Q108.532 270.914 108.402 271.092Q108.272 271.27 108.134 271.441Q107.995 271.612 107.848 271.776Q107.702 271.94 107.547 272.097Q107.392 272.254 107.23 272.403Q107.068 272.552 106.899 272.693Q106.73 272.834 106.554 272.967Q106.378 273.099 106.196 273.223Q106.014 273.346 105.826 273.461Q105.638 273.576 105.445 273.681Q105.251 273.787 105.053 273.882Q104.855 273.978 104.652 274.064Q104.449 274.15 104.243 274.226Q104.036 274.302 103.826 274.368Q103.616 274.434 103.403 274.489Q103.19 274.544 102.974 274.589Q102.759 274.634 102.541 274.669Q102.324 274.703 102.105 274.727Q101.886 274.75 101.666 274.763Q101.446 274.776 101.226 274.778Q101.006 274.78 100.786 274.772Q100.566 274.763 100.346 274.744Q100.127 274.724 99.9088 274.694L95.0016 274.018Q94.7819 273.987 94.5641 273.946Q94.3462 273.905 94.1307 273.854Q93.9151 273.802 93.7023 273.74Q93.4896 273.677 93.2802 273.605Q93.0707 273.532 92.8651 273.449Q92.6595 273.366 92.4583 273.273Q92.257 273.18 92.0605 273.078Q91.8641 272.975 91.673 272.863Q91.4818 272.75 91.2964 272.629Q91.111 272.507 90.9318 272.377Q90.7526 272.246 90.5801 272.107Q90.4075 271.968 90.2421 271.82Q90.0766 271.673 89.9185 271.517Q89.7605 271.362 89.6104 271.199Q89.4602 271.036 89.3182 270.866Q89.1763 270.695 89.0429 270.518Q88.9094 270.341 88.7849 270.158Q88.6604 269.974 88.545 269.785Q88.4297 269.596 88.3238 269.401Q88.2179 269.206 88.1217 269.007Q88.0256 268.807 87.9393 268.603Q87.8531 268.398 87.777 268.19Q87.701 267.982 87.6353 267.77Q87.5695 267.558 87.5143 267.344Q87.4591 267.129 87.4145 266.912Q87.37 266.695 87.3361 266.476Q87.3023 266.257 87.2793 266.036Q87.2563 265.816 87.2442 265.594Q87.232 265.373 87.2308 265.151Q87.2296 264.93 87.2393 264.708Q87.249 264.487 87.2696 264.266Q87.2902 264.045 87.3217 263.826L88.8777 252.965Q88.9089 252.747 88.9508 252.531Q88.9926 252.315 89.045 252.101Q89.0974 251.887 89.1601 251.676Q89.2229 251.465 89.2959 251.257Q89.3689 251.049 89.452 250.845Q89.5351 250.641 89.628 250.442Q89.721 250.242 89.8236 250.047Q89.9262 249.853 90.0382 249.663Q90.1502 249.473 90.2714 249.29Q90.3925 249.106 90.5225 248.928Q90.6525 248.75 90.7911 248.579Q90.9296 248.408 91.0763 248.244Q91.2231 248.08 91.3776 247.923Q91.5322 247.766 91.6943 247.617Q91.8564 247.468 92.0255 247.327Q92.1947 247.186 92.3706 247.053Q92.5464 246.921 92.7285 246.797Q92.9107 246.673 93.0986 246.559Q93.2866 246.444 93.4799 246.339Q93.6733 246.233 93.8715 246.138Q94.0698 246.042 94.2725 245.956Q94.4752 245.87 94.6819 245.794Q94.8886 245.718 95.0987 245.652Q95.3089 245.586 95.522 245.531Q95.7351 245.476 95.9506 245.431Q96.1662 245.386 96.3837 245.351Q96.6012 245.317 96.8201 245.293Q97.039 245.27 97.2588 245.257Q97.4787 245.244 97.6988 245.242Q97.919 245.24 98.139 245.248Q98.3591 245.257 98.5784 245.276Q98.7977 245.296 99.0159 245.326Z" id="path_7" />
    <path d="M58 192.558C58 155.049 91.297 124.642 132.371 124.642C173.445 124.642 206.742 155.049 206.742 192.558C206.742 230.066 173.445 260.473 132.371 260.473C91.297 260.473 58 230.066 58 192.558Z" id="path_8" />
    <path d="M139.087 187.853C146.311 187.853 152.166 193.708 152.166 200.932L152.166 200.932C152.166 208.155 146.311 214.01 139.087 214.01L126.303 214.01C119.079 214.01 113.225 208.155 113.225 200.932L113.225 200.932C113.225 193.708 119.079 187.853 126.303 187.853L139.087 187.853Z" id="path_9" />
    <path d="M132.846 33.0101L166.359 134.639L99.3322 134.639L132.846 33.0101Z" id="path_10" />
    <path d="M135.649 24L138.918 28.5316L144.751 28.5393L141.166 32.8968L142.925 38.126L137.441 36.2875L132.696 39.5116L132.891 34.0178L128.199 30.7813L133.803 29.2245L135.649 24Z" id="path_11" />
    <path d="M174.78 229.944L206.246 199.077L211.349 204.083L179.883 234.95L174.78 229.944Z" id="path_12" />
    <clipPath id="clip_1">
      <use xlink:href="#path_1" clip-rule="evenodd" fill-rule="evenodd" />
    </clipPath>
    <clipPath id="clip_2">
      <use xlink:href="#path_2" />
    </clipPath>
    <clipPath id="clip_3">
      <use xlink:href="#path_3" />
    </clipPath>
    <clipPath id="clip_4">
      <use xlink:href="#path_4" />
    </clipPath>
    <clipPath id="clip_5">
      <use xlink:href="#path_5" />
    </clipPath>
    <clipPath id="clip_6">
      <use xlink:href="#path_6" />
    </clipPath>
    <clipPath id="clip_7">
      <use xlink:href="#path_7" />
    </clipPath>
    <clipPath id="clip_8">
      <use xlink:href="#path_8" />
    </clipPath>
    <clipPath id="clip_9">
      <use xlink:href="#path_9" />
    </clipPath>
    <clipPath id="clip_10">
      <use xlink:href="#path_10" />
    </clipPath>
    <clipPath id="clip_11">
      <use xlink:href="#path_11" />
    </clipPath>
    <clipPath id="clip_12">
      <use xlink:href="#path_12" />
    </clipPath>
  </defs>
  <g id="Frame" clip-path="url(#clip_1)">
    <path d="M300 0L300 0L300 300L0 300L0 0L300 0Z" id="Frame" fill="#FFFFFF" fill-opacity="0" stroke="none" />
    <g id="Rectangle-2-Copy">
      <use stroke="none" fill="#FB6EA6" xlink:href="#path_2" fill-rule="evenodd" />
      <g clip-path="url(#clip_2)">
        <use xlink:href="#path_2" fill="none" stroke="#000000" stroke-width="2" />
      </g>
    </g>
    <g id="Oval-2-Union-Union-Union-Union">
      <use stroke="none" fill="#FB6EA6" xlink:href="#path_3" fill-rule="evenodd" />
      <g clip-path="url(#clip_3)">
        <use xlink:href="#path_3" fill="none" stroke="#000000" stroke-width="2" />
      </g>
    </g>
    <g id="Oval-2-Copy">
      <use stroke="none" fill="#FB6EA6" xlink:href="#path_4" fill-rule="evenodd" />
      <g clip-path="url(#clip_4)">
        <use xlink:href="#path_4" fill="none" stroke="#000000" stroke-width="2" />
      </g>
    </g>
    <g id="Oval-2-Union-Union-Union-Union-Copy">
      <use stroke="none" fill="#E03B7D" xlink:href="#path_5" fill-rule="evenodd" />
      <g clip-path="url(#clip_5)">
        <use xlink:href="#path_5" fill="none" stroke="#000000" stroke-width="2" />
      </g>
    </g>
    <g id="Oval-2-Union-Union-Union-Union-Copy-2">
      <use stroke="none" fill="#E03B7D" xlink:href="#path_6" fill-rule="evenodd" />
      <g clip-path="url(#clip_6)">
        <use xlink:href="#path_6" fill="none" stroke="#000000" stroke-width="2" />
      </g>
    </g>
    <g id="Rectangle-2">
      <use stroke="none" fill="#FB6EA6" xlink:href="#path_7" fill-rule="evenodd" />
      <g clip-path="url(#clip_7)">
        <use xlink:href="#path_7" fill="none" stroke="#000000" stroke-width="2" />
      </g>
    </g>
    <g id="Oval">
      <use stroke="none" fill="#FB6EA6" xlink:href="#path_8" fill-rule="evenodd" />
      <g clip-path="url(#clip_8)">
        <use xlink:href="#path_8" fill="none" stroke="#000000" stroke-width="2" />
      </g>
    </g>
    <g id="Rectangle">
      <use stroke="none" fill="#FF5252" xlink:href="#path_9" />
      <g clip-path="url(#clip_9)">
        <use xlink:href="#path_9" fill="none" stroke="#000000" stroke-width="2" />
      </g>
    </g>
    <path d="M121.013 201.295C121.013 199.088 122.757 197.299 124.907 197.299C127.058 197.299 128.801 199.088 128.801 201.295C128.801 203.502 127.058 205.291 124.907 205.291C122.757 205.291 121.013 203.502 121.013 201.295Z" id="Oval-3" fill="#000000" fill-rule="evenodd" stroke="none" />
    <path d="M135.881 201.295C135.881 199.088 137.625 197.299 139.775 197.299C141.926 197.299 143.67 199.088 143.67 201.295C143.67 203.502 141.926 205.291 139.775 205.291C137.625 205.291 135.881 203.502 135.881 201.295Z" id="Oval-3-Copy" fill="#000000" fill-rule="evenodd" stroke="none" />
    <path d="M145.794 174.412C145.794 172.205 147.537 170.416 149.688 170.416C151.838 170.416 153.582 172.205 153.582 174.412C153.582 176.619 151.838 178.408 149.688 178.408C147.537 178.408 145.794 176.619 145.794 174.412Z" id="Oval-3-Copy-2" fill="#000000" fill-rule="evenodd" stroke="none" />
    <path d="M111.809 174.412C111.809 172.205 113.552 170.416 115.703 170.416C117.854 170.416 119.597 172.205 119.597 174.412C119.597 176.619 117.854 178.408 115.703 178.408C113.552 178.408 111.809 176.619 111.809 174.412Z" id="Oval-3-Copy-3" fill="#000000" fill-rule="evenodd" stroke="none" />
    <path d="M159.048 193.122C158.953 191.347 163.276 189.683 168.704 189.403C174.131 189.124 178.608 190.337 178.703 192.112C178.798 193.886 174.475 195.551 169.047 195.83C163.619 196.109 159.143 194.897 159.048 193.122Z" id="Oval-4" fill="#FF3E8B" fill-rule="evenodd" stroke="none" />
    <path d="M86.6297 191.325C86.7245 189.551 91.2013 188.338 96.6289 188.617C102.056 188.896 106.38 190.561 106.285 192.336C106.19 194.111 101.713 195.323 96.2855 195.044C90.858 194.765 86.5349 193.1 86.6297 191.325Z" id="Oval-4-Copy-2" fill="#FF3E8B" fill-rule="evenodd" stroke="none" />
    <g id="Triangle">
      <use stroke="none" fill="#0F0261" xlink:href="#path_10" fill-rule="evenodd" />
      <g clip-path="url(#clip_10)">
        <use xlink:href="#path_10" fill="none" stroke="#000000" stroke-width="2" />
      </g>
    </g>
    <g id="Star">
      <use stroke="none" fill="#FADE07" xlink:href="#path_11" fill-rule="evenodd" />
      <g clip-path="url(#clip_11)">
        <use xlink:href="#path_11" fill="none" stroke="#FFFFFF" stroke-width="2" />
      </g>
    </g>
    <path d="M104.226 123.111L105.001 126.726C105.283 126.68 105.571 126.656 105.865 126.656L106.012 126.656L108.025 124.126L107.417 126.656L109.209 126.656L108.601 124.126L110.614 126.656L111.64 126.656L112.4 123.111L113.16 126.656L114.186 126.656L116.199 124.126L115.591 126.656L117.383 126.656L116.775 124.126L118.788 126.656L119.814 126.656L120.574 123.111L121.334 126.656L122.36 126.656L124.373 124.126L123.765 126.656L125.557 126.656L124.949 124.126L126.962 126.656L127.988 126.656L128.748 123.111L129.508 126.656L130.534 126.656L132.547 124.126L131.939 126.656L133.731 126.656L133.123 124.126L135.136 126.656L136.162 126.656L136.922 123.111L137.682 126.656L138.708 126.656L140.721 124.126L140.113 126.656L141.905 126.656L141.297 124.126L143.31 126.656L144.336 126.656L145.096 123.111L145.856 126.656L146.882 126.656L148.895 124.126L148.287 126.656L150.079 126.656L149.471 124.126L151.484 126.656L152.51 126.656L153.27 123.111L154.03 126.656L155.056 126.656L157.069 124.126L156.461 126.656L158.253 126.656L157.645 124.126L159.658 126.656L160.684 126.656L161.444 123.111L162.204 126.656L162.257 126.656C162.567 126.656 162.872 126.683 163.168 126.734L165.243 124.126L164.514 127.157C164.968 127.37 165.386 127.645 165.758 127.971L168.171 126.939L166.564 128.854C166.951 129.388 167.242 129.996 167.409 130.654L169.559 130.905L167.567 131.692C167.572 131.785 167.575 131.879 167.575 131.974C167.575 132.61 167.463 133.22 167.258 133.786L169.087 135.117L166.776 134.779C166.463 135.281 166.069 135.728 165.612 136.1L166.864 138.608L164.507 136.793C164.145 136.963 163.76 137.093 163.359 137.177L163.4 140.579L161.859 137.292L161.029 137.292L159.488 140.579L159.528 137.292L158.033 137.292L158.69 138.608L157.357 137.581L156.024 138.608L156.681 137.292L155.186 137.292L155.226 140.579L153.685 137.292L152.855 137.292L151.314 140.579L151.354 137.292L149.859 137.292L150.516 138.608L149.183 137.581L147.85 138.608L148.507 137.292L147.012 137.292L147.052 140.579L145.511 137.292L144.681 137.292L143.14 140.579L143.18 137.292L141.685 137.292L142.342 138.608L141.009 137.581L139.676 138.608L140.333 137.292L138.838 137.292L138.878 140.579L137.337 137.292L136.507 137.292L134.966 140.579L135.006 137.292L133.511 137.292L134.168 138.608L132.835 137.581L131.502 138.608L132.159 137.292L130.664 137.292L130.704 140.579L129.163 137.292L128.333 137.292L126.792 140.579L126.832 137.292L125.337 137.292L125.994 138.608L124.661 137.581L123.328 138.608L123.985 137.292L122.49 137.292L122.53 140.579L120.989 137.292L120.159 137.292L118.618 140.579L118.658 137.292L117.163 137.292L117.82 138.608L116.487 137.581L115.154 138.608L115.811 137.292L114.316 137.292L114.356 140.579L112.815 137.292L111.985 137.292L110.444 140.579L110.484 137.292L108.989 137.292L109.646 138.608L108.313 137.581L106.98 138.608L107.637 137.292L106.142 137.292L106.182 140.579L104.566 137.132C104.364 137.081 104.166 137.018 103.973 136.945L102.27 140.579L102.326 135.943C102.317 135.935 102.308 135.927 102.299 135.919L98.8055 138.608L100.862 134.491L96.5831 135.117L100.169 132.508L96.1115 130.905L100.405 130.402L97.4988 126.939L101.516 128.657L100.427 124.126L103.071 127.448C103.155 127.396 103.24 127.347 103.328 127.299L104.226 123.111Z" id="Rectangle-3-Union" fill="#FFFFFF" fill-rule="evenodd" stroke="none" />
    <path d="M134.104 220.188C134.104 220.188 142.645 221.102 154.322 217.473C165.998 213.843 171.5 207.419 171.5 207.419" id="Vector" fill="none" fill-rule="evenodd" stroke="#000000" stroke-width="1" />
    <path d="M116.541 105.091L117.742 107.436L120.428 107.812L118.484 109.638L118.943 112.216L116.541 110.999L114.138 112.216L114.597 109.638L112.654 107.812L115.339 107.436L116.541 105.091Z" id="Star-2" fill="#FFFFFF" fill-rule="evenodd" stroke="none" />
    <path d="M132.286 56.1788L133.487 58.5245L136.173 58.9007L134.23 60.7265L134.688 63.3047L132.286 62.0875L129.884 63.3047L130.343 60.7265L128.399 58.9007L131.085 58.5245L132.286 56.1788Z" id="Star-2-Copy" fill="#FFFFFF" fill-rule="evenodd" stroke="none" />
    <path d="M137.535 92.2191L138.736 94.5648L141.422 94.9409L139.478 96.7668L139.937 99.345L137.535 98.1277L135.132 99.345L135.591 96.7668L133.648 94.9409L136.334 94.5648L137.535 92.2191Z" id="Star-2-Copy-2" fill="#FFFFFF" fill-rule="evenodd" stroke="none" />
    <path d="M145.408 106.378L146.609 108.723L149.295 109.1L147.351 110.925L147.81 113.504L145.408 112.286L143.005 113.504L143.464 110.925L141.521 109.1L144.206 108.723L145.408 106.378Z" id="Star-2-Copy-3" fill="#FFFFFF" fill-rule="evenodd" stroke="none" />
    <path d="M222.823 174.597L224.025 176.943L226.71 177.319L224.767 179.145L225.226 181.723L222.823 180.505L220.421 181.723L220.88 179.145L218.937 177.319L221.622 176.943L222.823 174.597Z" id="Star-2-Copy-5" fill="#FBD605" fill-rule="evenodd" stroke="none" />
    <path d="M234.633 181.033L235.834 183.378L238.52 183.754L236.576 185.58L237.035 188.158L234.633 186.941L232.23 188.158L232.689 185.58L230.746 183.754L233.432 183.378L234.633 181.033Z" id="Star-2-Copy-6" fill="#FBD605" fill-rule="evenodd" stroke="none" />
    <path d="M128.35 78.704L129.551 81.0497L132.237 81.4258L130.293 83.2517L130.752 85.8299L128.35 84.6126L125.948 85.8299L126.406 83.2517L124.463 81.4258L127.149 81.0497L128.35 78.704Z" id="Star-2-Copy-4" fill="#FFFFFF" fill-rule="evenodd" stroke="none" />
    <path d="M237.913 166.874L239.114 169.22L241.8 169.596L239.857 171.422L240.315 174L237.913 172.783L235.511 174L235.97 171.422L234.026 169.596L236.712 169.22L237.913 166.874Z" id="Star-2-Copy-7" fill="#FBD605" fill-rule="evenodd" stroke="none" />
    <path d="M175.286 229.301L217.501 187.889L222.604 192.895L180.389 234.307L175.286 229.301Z" id="Rectangle-3-Copy" fill="#FFFFFF" fill-rule="evenodd" stroke="none" />
    <g id="Rectangle-3">
      <use stroke="none" fill="#000000" xlink:href="#path_12" fill-rule="evenodd" />
      <g clip-path="url(#clip_12)">
        <use xlink:href="#path_12" fill="none" stroke="#FFFFFF" stroke-width="2" />
      </g>
    </g>
  </g>
</svg>