<?xml version="1.0" encoding="utf-8"?>
<svg width="300px" height="300px" viewBox="0 0 300 300" version="1.1" xmlns:xlink="http://www.w3.org/1999/xlink" xmlns="http://www.w3.org/2000/svg">
  <defs>
    <path d="M300 0L300 0L300 300L0 300L0 0L300 0Z" id="path_1" />
    <path d="M49 83.6951C49 71.3779 58.5614 61.3928 70.3559 61.3928C82.1505 61.3928 91.7119 71.3779 91.7119 83.6951C91.7119 96.0123 82.1505 105.997 70.3559 105.997C58.5614 105.997 49 96.0123 49 83.6951Z" id="path_2" />
    <path d="M206.288 72.3669C206.288 60.0497 215.85 50.0646 227.644 50.0646C239.439 50.0646 249 60.0497 249 72.3669C249 84.6842 239.439 94.6693 227.644 94.6693C215.85 94.6693 206.288 84.6842 206.288 72.3669Z" id="path_3" />
    <path d="M124.254 31.3023C124.254 18.9851 133.816 9 145.61 9C157.405 9 166.966 18.9851 166.966 31.3023C166.966 43.6196 157.405 53.6046 145.61 53.6046C133.816 53.6046 124.254 43.6196 124.254 31.3023Z" id="path_4" />
    <clipPath id="clip_1">
      <use xlink:href="#path_1" clip-rule="evenodd" fill-rule="evenodd" />
    </clipPath>
  </defs>
  <g id="Frame" clip-path="url(#clip_1)">
    <path d="M300 0L300 0L300 300L0 300L0 0L300 0Z" id="Frame" fill="#FFFFFF" fill-opacity="0" stroke="none" />
    <path d="M93.0799 282.892L93.0678 283L93.0556 282.892L59.1695 282.892L91.9277 272.834L84.2542 204.411L101.881 204.411L93.4076 279.97L93.4076 282.892L93.0799 282.892Z" id="Vector-3-Copy-2-Union-2" fill="#C74D02" fill-rule="evenodd" stroke="none" />
    <path d="M206.276 282.892L206.288 283L206.3 282.892L240.186 282.892L207.428 272.834L215.102 204.411L197.475 204.411L205.948 279.97L205.948 282.892L206.276 282.892Z" id="Vector-3-Copy-2-Union" fill="#C74D02" fill-rule="evenodd" stroke="none" />
    <path d="M166.288 217.155L159.508 217.155L159.508 264.592L163.236 264.592L163.236 264.767L197.475 264.767L166.288 255.192L166.288 217.155Z" id="Vector-3-Copy-3-Union" fill="#C74D02" fill-opacity="0.75" fill-rule="evenodd" stroke="none" />
    <path d="M147.305 85.5056C144.452 99.1108 137.136 119.45 137.136 119.45L142.306 119.45Q141.029 119.805 139.789 120.272Q138.55 120.738 137.356 121.312Q136.162 121.886 135.023 122.564Q133.884 123.241 132.81 124.015Q131.735 124.79 130.733 125.657Q129.731 126.523 128.809 127.475Q127.887 128.426 127.053 129.456Q126.219 130.485 125.478 131.583L118.561 141.847C116.482 136.082 113.909 129.423 111 122.886C103.26 105.487 83.7681 92.7079 83.7681 92.7079C83.7681 92.7079 98.9958 107.197 101.623 126.646C103.531 140.779 104.528 155.23 104.93 162.073L94.0768 178.177Q93.7933 178.598 93.5243 179.028Q93.2552 179.458 93.0008 179.896Q92.7464 180.335 92.507 180.782Q92.2676 181.229 92.0434 181.684Q91.8193 182.139 91.6106 182.602Q91.402 183.064 91.209 183.533Q91.0161 184.002 90.8392 184.477Q90.6623 184.953 90.5015 185.434Q90.3407 185.915 90.1963 186.401Q90.0519 186.887 89.924 187.378Q89.7961 187.869 89.6849 188.364Q89.5736 188.859 89.4792 189.357Q89.3848 189.855 89.3072 190.356Q89.2297 190.858 89.1691 191.361Q89.1085 191.865 89.065 192.37Q89.0215 192.875 88.9951 193.382Q88.9687 193.888 88.9595 194.396Q88.9502 194.903 88.9581 195.41Q88.966 195.917 88.991 196.423Q89.016 196.93 89.0582 197.435Q89.1003 197.941 89.1595 198.445Q89.2187 198.948 89.2949 199.45Q89.3711 199.951 89.4642 200.45Q89.5573 200.948 89.6672 201.444Q89.7771 201.939 89.9037 202.43Q90.0302 202.921 90.1733 203.408Q90.3164 203.894 90.4759 204.376Q90.6354 204.857 90.811 205.333Q90.9867 205.809 91.1783 206.278Q91.37 206.748 91.5774 207.211Q91.7848 207.674 92.0077 208.129Q92.2306 208.585 92.4688 209.033Q92.707 209.48 92.9602 209.92Q93.2134 210.359 93.4813 210.79Q93.7492 211.221 94.0315 211.642Q94.3139 212.063 94.6103 212.475Q94.9067 212.886 95.2168 213.288Q95.5269 213.689 95.8505 214.08Q96.174 214.47 96.5106 214.85Q96.8471 215.229 97.1963 215.597Q97.5455 215.965 97.9069 216.321Q98.2683 216.677 98.6415 217.02Q99.0148 217.363 99.3994 217.694Q99.7841 218.025 100.18 218.342Q100.575 218.659 100.981 218.963Q101.387 219.267 101.804 219.557Q102.22 219.847 102.645 220.123Q103.071 220.399 103.506 220.66Q103.941 220.921 104.384 221.167Q104.827 221.414 105.279 221.645Q105.73 221.876 106.189 222.092Q106.648 222.308 107.114 222.508Q107.58 222.708 108.053 222.892Q108.525 223.077 109.004 223.245Q109.482 223.413 109.966 223.565Q110.45 223.717 110.939 223.852Q111.427 223.988 111.921 224.107Q112.414 224.226 112.91 224.328Q113.407 224.43 113.907 224.516Q114.407 224.601 114.91 224.669Q115.412 224.738 115.917 224.789Q116.421 224.84 116.927 224.875Q117.433 224.909 117.94 224.926Q118.447 224.943 118.954 224.943L181.757 224.943Q182.265 224.943 182.771 224.926Q183.278 224.909 183.784 224.875Q184.29 224.84 184.795 224.789Q185.3 224.738 185.802 224.669Q186.305 224.601 186.805 224.516Q187.305 224.43 187.801 224.328Q188.298 224.226 188.791 224.107Q189.284 223.988 189.773 223.852Q190.262 223.717 190.746 223.565Q191.23 223.413 191.708 223.245Q192.187 223.077 192.659 222.892Q193.132 222.708 193.598 222.508Q194.064 222.308 194.523 222.092Q194.982 221.876 195.433 221.645Q195.885 221.414 196.328 221.167Q196.771 220.921 197.206 220.66Q197.641 220.399 198.067 220.123Q198.492 219.847 198.908 219.557Q199.324 219.267 199.731 218.963Q200.137 218.659 200.532 218.342Q200.928 218.025 201.312 217.694Q201.697 217.363 202.07 217.02Q202.444 216.677 202.805 216.321Q203.166 215.965 203.516 215.597Q203.865 215.229 204.201 214.85Q204.538 214.47 204.861 214.08Q205.185 213.689 205.495 213.288Q205.805 212.886 206.102 212.475Q206.398 212.063 206.68 211.642Q206.963 211.221 207.231 210.79Q207.498 210.359 207.752 209.92Q208.005 209.48 208.243 209.033Q208.481 208.585 208.704 208.129Q208.927 207.674 209.135 207.211Q209.342 206.748 209.534 206.278Q209.725 205.809 209.901 205.333Q210.077 204.857 210.236 204.376Q210.395 203.894 210.539 203.408Q210.682 202.921 210.808 202.43Q210.935 201.939 211.045 201.444Q211.155 200.948 211.248 200.45Q211.341 199.951 211.417 199.45Q211.493 198.948 211.552 198.445Q211.612 197.941 211.654 197.435Q211.696 196.93 211.721 196.423Q211.746 195.917 211.754 195.41Q211.762 194.903 211.752 194.396Q211.743 193.888 211.717 193.382Q211.69 192.875 211.647 192.37Q211.603 191.865 211.543 191.361Q211.482 190.858 211.405 190.356Q211.327 189.855 211.233 189.357Q211.138 188.859 211.027 188.364Q210.916 187.869 210.788 187.378Q210.66 186.887 210.516 186.401Q210.371 185.915 210.21 185.434Q210.05 184.953 209.873 184.477Q209.696 184.002 209.503 183.533Q209.31 183.064 209.101 182.602Q208.893 182.139 208.668 181.684Q208.444 181.229 208.205 180.782Q207.965 180.335 207.711 179.896Q207.457 179.458 207.188 179.028Q206.919 178.598 206.635 178.177L192.359 156.993C194.334 148.751 197.207 137.303 200.464 126.021C206.585 104.818 222.491 88.4897 222.491 88.4897C222.491 88.4897 203.28 103.134 193.195 122.319C189.425 129.492 185.914 136.783 182.995 143.1L175.234 131.583Q174.493 130.485 173.659 129.456Q172.825 128.426 171.903 127.475Q170.981 126.523 169.979 125.657Q168.977 124.79 167.902 124.015Q166.828 123.241 165.689 122.564Q164.55 121.886 163.356 121.312Q162.162 120.738 160.922 120.272Q159.682 119.805 158.406 119.45L162.898 119.45C162.898 119.45 157.136 113.838 157.136 92.3574C157.136 70.8767 147.305 49.3566 147.305 49.3566C147.305 49.3566 150.158 71.9005 147.305 85.5056Z" id="Triangle-Union-Union" fill="#A25E1E" fill-rule="evenodd" stroke="none" />
    <g id="Oval-Copy-2">
      <use xlink:href="#path_2" fill="none" stroke="#A25E1E" stroke-width="8" />
      <use stroke="none" fill="#FFFFFF" xlink:href="#path_2" fill-rule="evenodd" />
    </g>
    <g id="Oval-Copy-4">
      <use xlink:href="#path_3" fill="none" stroke="#A25E1E" stroke-width="8" />
      <use stroke="none" fill="#FFFFFF" xlink:href="#path_3" fill-rule="evenodd" />
    </g>
    <path d="M61.2034 84.0209C61.2034 78.5622 65.4408 74.1369 70.6679 74.1369C75.8951 74.1369 80.1325 78.5622 80.1325 84.0209C80.1325 89.4797 75.8951 93.9049 70.6679 93.9049C65.4408 93.9049 61.2034 89.4797 61.2034 84.0209Z" id="Oval-2-Copy-2" fill="#854E19" fill-rule="evenodd" stroke="none" />
    <path d="M68.661 86.5835C68.661 85.1838 69.7475 84.0491 71.0878 84.0491C72.4281 84.0491 73.5146 85.1838 73.5146 86.5835C73.5146 87.9831 72.4281 89.1178 71.0878 89.1178C69.7475 89.1178 68.661 87.9831 68.661 86.5835Z" id="Oval-3-Copy-2" fill="#000000" fill-rule="evenodd" stroke="none" />
    <path d="M218.492 72.6928C218.492 67.234 222.729 62.8088 227.956 62.8088C233.183 62.8088 237.421 67.234 237.421 72.6928C237.421 78.1516 233.183 82.5768 227.956 82.5768C222.729 82.5768 218.492 78.1516 218.492 72.6928Z" id="Oval-2-Copy-4" fill="#854E19" fill-rule="evenodd" stroke="none" />
    <path d="M226.627 75.9633C226.627 74.5636 227.714 73.4289 229.054 73.4289C230.394 73.4289 231.481 74.5636 231.481 75.9633C231.481 77.363 230.394 78.4977 229.054 78.4977C227.714 78.4977 226.627 77.363 226.627 75.9633Z" id="Oval-3-Copy-4" fill="#000000" fill-rule="evenodd" stroke="none" />
    <path d="M67.3051 75.3076C67.3051 73.488 68.7176 72.0129 70.4599 72.0129C72.2023 72.0129 73.6148 73.488 73.6148 75.3076C73.6148 77.1272 72.2023 78.6022 70.4599 78.6022C68.7176 78.6022 67.3051 77.1272 67.3051 75.3076Z" id="Oval-4-Copy-2" fill="#FFFFFF" fill-rule="evenodd" stroke="none" />
    <g id="Oval-Copy-3">
      <use xlink:href="#path_4" fill="none" stroke="#A25E1E" stroke-width="8" />
      <use stroke="none" fill="#FFFFFF" xlink:href="#path_4" fill-rule="evenodd" />
    </g>
    <path d="M136.458 31.6282C136.458 26.1694 140.695 21.7442 145.922 21.7442C151.149 21.7442 155.387 26.1694 155.387 31.6282C155.387 37.0869 151.149 41.5122 145.922 41.5122C140.695 41.5122 136.458 37.0869 136.458 31.6282Z" id="Oval-2-Copy-3" fill="#854E19" fill-rule="evenodd" stroke="none" />
    <path d="M224.593 63.9794C224.593 62.1598 226.006 60.6848 227.748 60.6848C229.49 60.6848 230.903 62.1598 230.903 63.9794C230.903 65.799 229.49 67.2741 227.748 67.2741C226.006 67.2741 224.593 65.799 224.593 63.9794Z" id="Oval-4-Copy-4" fill="#FFFFFF" fill-rule="evenodd" stroke="none" />
    <path d="M143.915 34.1907C143.915 32.791 145.002 31.6563 146.342 31.6563C147.682 31.6563 148.769 32.791 148.769 34.1907C148.769 35.5904 147.682 36.725 146.342 36.725C145.002 36.725 143.915 35.5904 143.915 34.1907Z" id="Oval-3-Copy-3" fill="#000000" fill-rule="evenodd" stroke="none" />
    <path d="M142.559 22.9148C142.559 21.0952 143.972 19.6201 145.714 19.6201C147.457 19.6201 148.869 21.0952 148.869 22.9148C148.869 24.7344 147.457 26.2095 145.714 26.2095C143.972 26.2095 142.559 24.7344 142.559 22.9148Z" id="Oval-4-Copy-3" fill="#FFFFFF" fill-rule="evenodd" stroke="none" />
    <path d="M127.643 224.943L133.745 224.943L133.745 264.446L130.616 264.446L130.616 264.591L101.88 264.591L127.643 256.743L127.643 224.943Z" id="Vector-3-Copy-3-Union-2" fill="#C74D02" fill-opacity="0.75" fill-rule="evenodd" stroke="none" />
    <path d="M124.932 204.411C124.932 204.411 133.819 199.266 147.379 196.789C160.938 194.312 179.169 194.502 179.169 194.502" id="Vector" fill="none" fill-rule="evenodd" stroke="#000000" stroke-width="3" />
  </g>
</svg>