<?xml version="1.0" encoding="utf-8"?>
<svg width="300px" height="300px" viewBox="0 0 300 300" version="1.1" xmlns:xlink="http://www.w3.org/1999/xlink" xmlns="http://www.w3.org/2000/svg">
  <defs>
    <path d="M300 0L300 0L300 300L0 300L0 0L300 0Z" id="path_1" />
    <clipPath id="clip_1">
      <use xlink:href="#path_1" clip-rule="evenodd" fill-rule="evenodd" />
    </clipPath>
  </defs>
  <g id="Frame" clip-path="url(#clip_1)">
    <path d="M300 0L300 0L300 300L0 300L0 0L300 0Z" id="Frame" fill="#FFFFFF" fill-opacity="0" stroke="none" />
    <path d="M247 201.773L247 201.809C247 203.184 245.924 204.007 244.598 203.649C234.624 200.956 197 190.798 197 190.798C181.037 190.798 199.75 204.298 172.5 204.298C159.061 204.298 152.675 202.717 149.654 201.115C147.457 199.949 146.999 195.781 146.999 193.294L146.999 193.339C146.999 191.935 146.122 191.917 146.691 193.2C147.589 195.226 151.982 197.798 168.499 197.798C195.75 197.798 164.08 186.047 175.5 183.297C185.174 180.967 229.763 192.99 243.174 196.721C245.289 197.309 247 199.577 247 201.773Z" id="Rectangle-5" fill="#FFC107" fill-rule="evenodd" stroke="none" />
    <path d="M38 153C38 114.34 70.4594 82.9999 110.5 82.9999C150.541 82.9999 183 114.34 183 153C183 191.66 150.541 223 110.5 223C70.4594 223 38 191.66 38 153Z" id="Oval" fill="#FFC107" fill-rule="evenodd" stroke="none" />
    <path d="M110.674 82.3584C113.132 84.1441 113.676 87.5831 111.891 90.0408L99.9708 106.447C98.1851 108.905 94.7462 109.45 92.2884 107.664L92.2884 107.664C89.8306 105.878 89.2859 102.439 91.0716 99.9816L102.992 83.5752C104.777 81.1174 108.216 80.5727 110.674 82.3584Z" id="Rectangle" fill="#000000" stroke="none" />
    <path d="M120.73 102.952C122.605 104.583 122.804 107.425 121.173 109.301L103.158 130.025C101.528 131.901 98.6859 132.099 96.8099 130.469L96.8099 130.469C94.934 128.838 94.7353 125.996 96.366 124.12L114.381 103.396C116.012 101.52 118.854 101.321 120.73 102.952Z" id="Rectangle-2" fill="#000000" stroke="none" />
    <g id="Group" transform="matrix(0.7313537 0.6819984 -0.6819984 0.7313537 160.99997 78.99994)">
      <path d="M13 0C17.4189 0 21 3.58112 21 8L21 20C21 24.4189 17.4189 28 13 28L8 28C3.58112 28 0 24.4189 0 20L0 8C0 3.58112 3.58112 0 8 0L13 0Z" id="Rectangle-3" fill="#FFC107" stroke="none" />
      <path d="M10.5 4.00006C14.0903 4.00006 17 6.90972 17 10.5001L17 17.5001C17 21.0904 14.0903 24.0001 10.5 24.0001L10.5 24.0001C6.90966 24.0001 4 21.0904 4 17.5001L4 10.5001C4 6.90972 6.90966 4.00006 10.5 4.00006Z" id="Rectangle-4" fill="#FFDBAC" stroke="none" />
    </g>
    <path d="M121 104.5C121 106.986 118.986 109 116.5 109L94.5 109C92.0144 109 90 106.986 90 104.5L90 104.5C90 102.014 92.0144 99.9999 94.5 99.9999L116.5 99.9999C118.986 99.9999 121 102.014 121 104.5Z" id="Rectangle" fill="#000000" stroke="none" />
    <g id="Group" transform="matrix(0.8480481 -0.52991927 0.52991927 0.8480481 38.09996 90.99994)">
      <path d="M13 0C17.4189 0 21 3.58112 21 8L21 20C21 24.4189 17.4189 28 13 28L8 28C3.58112 28 0 24.4189 0 20L0 8C0 3.58112 3.58112 0 8 0L13 0Z" id="Rectangle-3" fill="#FFC107" stroke="none" />
      <path d="M10.5 4C14.0903 4 17 6.90966 17 10.5L17 17.5C17 21.0903 14.0903 24 10.5 24L10.5 24C6.90963 24 3.99997 21.0903 3.99997 17.5L3.99997 10.5C3.99997 6.90966 6.90963 4 10.5 4Z" id="Rectangle-4" fill="#FFDBAC" stroke="none" />
    </g>
    <path d="M68 136C71.3142 136 74 138.686 74 142L74 147C74 150.314 71.3142 153 68 153L68 153C64.6858 153 62 150.314 62 147L62 142C62 138.686 64.6858 136 68 136Z" id="Rectangle-3" fill="#000000" stroke="none" />
    <path d="M150 136C153.314 136 156 138.686 156 142L156 147C156 150.314 153.314 153 150 153L150 153C146.686 153 144 150.314 144 147L144 142C144 138.686 146.686 136 150 136Z" id="Rectangle-3" fill="#000000" stroke="none" />
    <path d="M108 158C109.105 158 110 158.895 110 160L110 180C110 181.105 109.105 182 108 182L108 182C106.895 182 106 181.105 106 180L106 160C106 158.895 106.895 158 108 158Z" id="Rectangle-4" fill="#000000" stroke="none" />
    <path d="M92 194L87 183L97 183L92 194Z" id="Triangle-2" fill="#FFFFFF" fill-rule="evenodd" stroke="none" />
    <path d="M127 194L122 183L132 183L127 194Z" id="Triangle-2" fill="#FFFFFF" fill-rule="evenodd" stroke="none" />
    <path d="M85 180C85.4452 189 108 180 108 180" id="Vector" fill="none" fill-rule="evenodd" stroke="#000000" stroke-width="3" />
    <path d="M112 180C112.503 189 138 180 138 180" id="Vector" fill="none" fill-rule="evenodd" stroke="#000000" stroke-width="3" />
    <path d="M107.991 164.211L95.9912 145.211L119.991 145.211L107.991 164.211Z" id="Triangle" fill="#000000" fill-rule="evenodd" stroke="none" />
    <path d="M124.079 127.499C124.122 129.984 122.143 132.034 119.658 132.077L91.7854 132.564C89.3001 132.607 87.2509 130.628 87.2075 128.143L87.2075 128.143C87.1641 125.658 89.1431 123.608 91.6283 123.565L119.501 123.078C121.986 123.035 124.035 125.014 124.079 127.499Z" id="Rectangle-2" fill="#000000" stroke="none" />
    <path d="M243 183C247.419 183 251 186.581 251 191L251 202C251 206.419 247.419 210 243 210L242 210C237.581 210 234 206.419 234 202L234 191C234 186.581 237.581 183 242 183L243 183Z" id="Rectangle-6" fill="#BDBDBD" stroke="none" />
    <path d="M260.5 188C261.881 188 263 189.119 263 190.5L263 190.5C263 191.881 261.881 193 260.5 193L249.5 193C248.119 193 247 191.881 247 190.5L247 190.5C247 189.119 248.119 188 249.5 188L260.5 188Z" id="Rectangle-7" fill="#FFC107" stroke="none" />
    <path d="M260.5 199C261.881 199 263 200.119 263 201.5L263 201.5C263 202.881 261.881 204 260.5 204L249.5 204C248.119 204 247 202.881 247 201.5L247 201.5C247 200.119 248.119 199 249.5 199L260.5 199Z" id="Rectangle-7" fill="#FFC107" stroke="none" />
  </g>
</svg>