<?xml version="1.0" encoding="utf-8"?>
<svg width="300px" height="300px" viewBox="0 0 300 300" version="1.1" xmlns:xlink="http://www.w3.org/1999/xlink" xmlns="http://www.w3.org/2000/svg">
  <defs>
    <path d="M300 0L300 0L300 300L0 300L0 0L300 0Z" id="path_1" />
    <clipPath id="clip_1">
      <use xlink:href="#path_1" clip-rule="evenodd" fill-rule="evenodd" />
    </clipPath>
  </defs>
  <g id="Frame" clip-path="url(#clip_1)">
    <path d="M300 0L300 0L300 300L0 300L0 0L300 0Z" id="Frame" fill="#FFFFFF" fill-opacity="0" stroke="none" />
    <path d="M153.235 107.027C153.235 107.027 124.415 105.102 124.415 105.102C124.415 105.102 97.416 103.299 97.416 103.299C104.283 95.2314 40.9222 63.7089 49.8618 58.1866C57.0315 53.7576 103.163 76.4406 152.855 79.4568C190.868 81.7641 230.588 81.2462 247.159 80.8754C251.576 80.7765 252.684 83.2528 249.66 86.474C228.688 108.812 154.046 189.834 137.351 228.897C117.876 274.465 120.178 224.919 120.144 219.434C120.061 205.644 158.898 162.032 136.525 168.832L94.228 219.332C91.391 222.719 91.2675 222.619 93.8264 219.017C108.857 197.86 152.068 131.133 109.626 117.637C73.7633 106.234 49.8955 101.608 39.0354 99.8803C35.3303 99.2911 35.3417 99.153 39.085 99.403L153.235 107.027Z" id="Rectangle" fill="#FF5252" fill-rule="evenodd" stroke="none" />
    <path d="M166.873 102.027C166.873 102.027 138.054 100.102 138.054 100.102C138.054 100.102 111.054 98.2988 111.054 98.2988C117.922 90.2311 54.5605 58.7087 63.5001 53.1864C70.6698 48.7574 116.801 71.4404 166.493 74.4565C204.506 76.7638 244.227 76.246 260.798 75.8751C265.215 75.7763 266.322 78.2526 263.298 81.4737C242.326 103.812 167.684 184.834 150.989 223.897C131.514 269.465 133.816 219.918 133.783 214.434C133.699 200.644 172.536 157.031 150.163 163.832L107.866 214.332C105.029 217.719 104.906 217.619 107.465 214.017C122.495 192.86 165.707 126.133 123.264 112.637C87.4016 101.233 63.5338 96.6073 52.6737 94.8801C48.9686 94.2908 48.98 94.1528 52.7233 94.4028L166.873 102.027Z" id="Rectangle" fill="#000000" fill-rule="evenodd" stroke="none" />
    <path d="M103.896 80.1224C103.581 80.1539 103.269 80.185 103.021 80.1316C112.149 86.8349 118.83 92.8087 116.35 95.7227L53.6621 91.5357C52.3249 91.4464 52.3227 91.4892 53.6544 91.6675C61.266 92.687 86.7688 96.7722 128.56 110.061C174.474 124.661 120.149 201.556 109.7 215.664C108.783 216.902 108.816 216.945 109.791 215.78L155.459 161.256C168.776 157.208 160.406 171.022 151.466 185.777C149.622 188.82 147.754 191.903 146.047 194.878C146.389 194.756 146.696 194.589 146.915 194.311C147.036 194.157 147.339 194.234 147.643 194.311C147.946 194.388 148.249 194.465 148.37 194.311C148.734 193.85 149.461 193.85 149.825 193.388C149.926 193.26 150.178 193.324 150.431 193.388C150.683 193.452 150.936 193.516 151.037 193.388L151.522 192.773C151.603 192.67 151.804 192.721 152.007 192.773C152.209 192.824 152.411 192.875 152.492 192.773C153.058 192.055 153.623 191.337 154.189 190.619C154.19 190.617 154.311 190.618 154.432 190.619C154.552 190.619 154.673 190.62 154.674 190.619C154.714 190.567 154.694 190.439 154.674 190.311C154.654 190.183 154.634 190.055 154.674 190.003C155.627 188.794 156.931 188.062 158.069 186.619C158.109 186.567 158.089 186.439 158.069 186.311C158.048 186.183 158.028 186.054 158.069 186.003L160.008 183.542C160.049 183.49 160.028 183.362 160.008 183.234C159.988 183.105 159.968 182.977 160.008 182.926C160.009 182.924 160.131 182.925 160.251 182.926L160.252 182.926C160.372 182.927 160.492 182.928 160.493 182.926C160.531 182.878 160.519 182.803 160.506 182.728C160.5 182.69 160.493 182.653 160.493 182.618C160.493 182.584 160.489 182.549 160.485 182.513C160.477 182.443 160.469 182.372 160.493 182.311C160.727 181.718 161.477 181.659 161.706 181.08C162.216 179.784 163.521 178.468 164.13 177.695C164.168 177.647 164.227 177.663 164.287 177.679C164.316 177.687 164.346 177.695 164.373 177.695C164.4 177.695 164.429 177.703 164.459 177.711C164.518 177.727 164.577 177.743 164.615 177.695L166.555 175.234C166.593 175.185 166.652 175.201 166.711 175.217C166.741 175.225 166.77 175.234 166.797 175.234C166.824 175.234 166.854 175.242 166.883 175.25C166.943 175.266 167.002 175.282 167.04 175.234C167.08 175.182 167.06 175.054 167.04 174.926C167.019 174.798 166.999 174.669 167.04 174.618C167.1 174.541 167.252 174.58 167.403 174.618C167.555 174.657 167.706 174.695 167.767 174.618C168.01 174.31 168.01 173.695 168.252 173.387C168.333 173.285 168.899 173.182 168.979 173.08C169.869 171.951 170.627 171.296 171.404 170.31C171.485 170.208 171.566 169.49 171.647 169.387C172.172 168.72 172.818 168.208 173.344 167.541C174.278 166.355 174.677 164.619 175.526 163.541C175.849 163.131 175.688 162.105 176.011 161.695C176.071 161.618 176.223 161.656 176.375 161.695C176.526 161.733 176.678 161.771 176.738 161.695C176.776 161.646 176.764 161.571 176.751 161.496C176.745 161.459 176.738 161.421 176.738 161.387C176.738 161.353 176.732 161.315 176.726 161.278C176.713 161.203 176.7 161.128 176.738 161.079C176.981 160.771 177.708 161.079 177.951 160.771C178.803 159.69 180.454 159.133 181.345 158.002C181.355 157.989 181.367 157.978 181.38 157.969C179.921 156.106 178.237 153.673 176.375 151.31L175.405 150.079C175.367 150.03 175.308 150.047 175.248 150.063C175.219 150.071 175.189 150.079 175.162 150.079C175.135 150.079 175.106 150.087 175.076 150.095C175.017 150.111 174.958 150.127 174.92 150.079L174.92 149.463C174.578 148.595 173.441 147.586 172.98 147.002C172.697 146.643 172.778 145.822 172.495 145.463C171.819 144.606 171.307 143.34 170.555 142.386C170.193 141.926 170.397 140.338 170.07 139.925C168.954 138.508 168.553 136.46 167.646 135.309C167.585 135.232 167.616 135.04 167.646 134.847C167.676 134.655 167.706 134.463 167.646 134.386C167.288 133.932 167.216 132.917 166.918 132.54C165.401 130.614 165.343 127.156 164.009 125.463C163.948 125.386 163.979 125.193 164.009 125.001C164.039 124.808 164.069 124.616 164.009 124.539C163.328 123.675 163.381 122.204 162.797 121.462C162.672 121.304 162.725 120.897 162.777 120.493L162.777 120.493C162.823 120.143 162.868 119.796 162.797 119.616C162.366 118.522 162.725 116.972 162.312 115.924C161.622 114.174 161.93 110.824 161.099 109.77C161.029 109.68 161.063 109.147 161.086 108.802C161.093 108.683 161.099 108.587 161.099 108.539C161.099 108.404 161.101 108.267 161.102 108.129C161.109 107.295 161.117 106.429 160.857 105.77C160.592 105.097 160.372 104.216 160.372 103.616C160.372 103.553 160.38 103.431 160.39 103.281L160.39 103.281L160.39 103.28L160.39 103.28C160.418 102.848 160.462 102.191 160.372 102.077C160.17 101.821 160.089 101.41 159.887 101.154C159.806 101.051 159.847 100.795 159.887 100.539C159.927 100.282 159.968 100.026 159.887 99.9232C159.675 99.6535 159.366 99.2168 159.16 98.6923C159.113 98.5736 159.142 98.3423 159.172 98.1087C159.207 97.8388 159.242 97.5662 159.16 97.4615C158.84 97.0554 158.873 96.0083 158.902 95.0916C158.91 94.8409 158.917 94.5999 158.917 94.3845C158.917 93.8267 158.901 93.2165 158.885 92.5856C158.872 92.0879 158.858 91.5774 158.852 91.0698C158.673 91.2824 158.493 91.5023 158.311 91.7328C158.22 91.8479 156.22 91.8479 156.129 91.7328C155.775 91.2841 155.275 91.3067 154.752 91.3302C154.314 91.3499 153.86 91.3703 153.462 91.1174C152.248 90.3469 150.686 90.7405 149.34 89.8866C149.094 89.7306 148.889 89.7532 148.705 89.7736C148.497 89.7965 148.315 89.8167 148.128 89.5789C147.903 89.2937 147.341 89.37 146.76 89.4489C146.137 89.5334 145.493 89.6208 145.218 89.2712C144.914 88.8855 144.192 88.9182 143.531 88.9481C143.359 88.9559 143.191 88.9635 143.036 88.9635L136.974 88.9635C136.874 88.9635 136.679 88.9845 136.441 89.0101C135.761 89.0833 134.731 89.1943 134.55 88.9635C134.307 88.6558 133.58 88.9634 133.337 88.6558C132.714 87.8648 131.002 88.0973 129.943 87.4249C129.801 87.3348 129.527 87.392 129.252 87.4496C128.934 87.5161 128.613 87.5832 128.488 87.4249C127.815 86.5707 126.353 86.8698 125.578 85.8864C125.477 85.7582 125.225 85.8223 124.972 85.8864C124.72 85.9505 124.467 86.0146 124.366 85.8864C122.734 83.8153 119.507 83.7325 116.85 83.7325L113.94 83.7325C113.902 83.7325 113.826 83.7403 113.733 83.75C113.461 83.7781 113.041 83.8217 112.97 83.7325C112.809 83.5274 112.465 83.553 112.122 83.5787C111.778 83.6043 111.435 83.6299 111.273 83.4248C110.181 82.0392 107.216 81.9687 106.181 80.6555C105.979 80.3991 105.413 80.6042 105.211 80.3478C104.951 80.0172 104.419 80.0702 103.896 80.1224L103.896 80.1224ZM169.101 90.9998C169.089 90.9854 169.075 90.9751 169.058 90.968C169.163 90.8883 169.259 90.7984 169.343 90.6921C169.666 90.2818 169.747 89.5638 170.071 89.1535C170.353 88.7946 171 88.8971 171.283 88.5381L173.223 86.0765C173.546 85.6662 174.354 85.8714 174.677 85.4611C174.718 85.4098 174.698 85.2816 174.677 85.1534C174.657 85.0251 174.637 84.897 174.677 84.8457C175.172 84.2178 176.203 84.1409 176.617 83.6149C176.655 83.5665 176.642 83.4915 176.63 83.4164C176.623 83.3789 176.617 83.3414 176.617 83.3072C176.617 83.2738 176.611 83.2371 176.605 83.2004C177.482 84.2384 178.369 85.3118 179.245 86.4236C179.326 86.5261 179.407 87.2441 179.488 87.3467L181.67 90.116L181.67 90.7314C181.949 91.4395 182.6 91.8628 182.882 92.5776C183.094 93.1167 183.155 93.8848 183.367 94.4238C184.032 96.1124 185.098 97.3211 185.549 99.0394C186.409 102.313 187.588 104.956 188.459 108.27C188.844 109.739 189.134 111.215 189.671 112.578C189.748 112.774 189.753 113.162 189.759 113.56C189.766 114.049 189.773 114.554 189.913 114.732C190.807 115.866 191.557 118.904 192.096 120.271C192.321 120.842 192.243 122.612 192.581 123.04C193.344 124.008 193.484 125.334 194.035 126.733C195.155 129.575 196.392 133.021 197.43 135.656C197.77 136.519 197.635 138.686 198.157 139.348C198.546 139.842 198.414 141.213 198.885 141.81C199.259 142.286 199.279 143.538 199.59 144.386C199.105 144.474 198.579 144.54 197.954 144.54C197.884 144.54 197.748 144.555 197.581 144.573C197.106 144.624 196.383 144.701 196.257 144.54C195.483 143.558 192.817 143.592 191.228 143.612C191.026 143.615 190.841 143.617 190.68 143.617C190.312 143.617 189.937 143.6 189.566 143.583C189.116 143.562 188.672 143.542 188.254 143.553C188.297 143.204 188.327 142.876 188.255 142.694C187.939 141.891 187.842 141.03 187.528 140.232C187.445 140.022 187.497 139.617 187.551 139.209C187.612 138.738 187.673 138.263 187.528 138.078C187.116 137.555 187.455 135.524 187.043 135.001C185.863 133.504 186.283 129.729 185.103 128.232C185.022 128.129 185.063 127.873 185.103 127.616C185.144 127.36 185.184 127.104 185.103 127.001L184.618 126.386C184.537 126.283 184.578 126.027 184.618 125.77C184.659 125.514 184.699 125.257 184.618 125.155C183.585 123.844 183.299 120.403 182.194 119.001C181.772 118.466 181.912 116.797 181.466 116.231C180.823 115.416 180.464 114.036 179.769 113.154C179.565 112.895 179.489 111.568 179.284 111.308L178.314 110.077C178.112 109.821 178.274 109.103 178.072 108.847C177.913 108.645 177.511 108.655 177.344 108.231C177.189 107.837 177.142 106.743 176.859 106.385C176.698 106.18 176.294 106.282 176.132 106.077C175.557 105.348 175.427 103.336 174.92 102.692C174.112 101.667 173.546 100.333 172.738 99.3077C172.536 99.0513 172.697 98.3333 172.495 98.0769C172.131 97.6154 171.889 97 171.525 96.5384C171.465 96.4615 171.495 96.2692 171.525 96.0768C171.556 95.8845 171.586 95.6922 171.525 95.6153C170.758 94.6409 170.353 93.205 169.586 92.2306C169.548 92.1822 169.56 92.1072 169.573 92.0321C169.579 91.9946 169.586 91.9571 169.586 91.9229C169.586 91.8887 169.592 91.8512 169.598 91.8136C169.611 91.7386 169.624 91.6635 169.586 91.6152L169.101 90.9998L169.101 90.9998Z" id="Rectangle-2" fill="#FFFFFF" fill-rule="evenodd" stroke="none" />
    <path d="M228.141 87.692C228.141 85.5677 229.565 83.8457 231.323 83.8457C233.08 83.8457 234.505 85.5677 234.505 87.692C234.505 89.8162 233.08 91.5383 231.323 91.5383C229.565 91.5383 228.141 89.8162 228.141 87.692Z" id="Oval" fill="#FFFFFF" fill-rule="evenodd" stroke="none" />
    <path d="M214.92 85.7688L247.726 82.0761L220.099 90.3346L214.92 85.7688Z" id="Triangle" fill="#FF5252" fill-rule="evenodd" stroke="none" />
    <path d="M230.546 89.588C229.896 88.1017 229.717 87.692 229.717 87.692C229.717 87.692 232.547 86.237 233.196 87.7233C233.846 89.2096 232.967 89.8035 232.334 90.2491C231.7 90.6947 231.195 91.0744 230.546 89.588Z" id="Oval-2" fill="#000000" fill-rule="evenodd" stroke="none" />
    <path d="M269 75.3179L253.955 92.1228L248.959 75.605L269 75.3179Z" id="Triangle-2" fill="#FFDC52" fill-rule="evenodd" stroke="none" />
    <path d="M251.781 83.8457C251.781 83.8457 270.108 74.711 268.673 75.4235" id="Line" fill="none" fill-rule="evenodd" stroke="#757575" stroke-width="2" stroke-linecap="square" />
  </g>
</svg>