<?xml version="1.0" encoding="utf-8"?>
<svg width="300px" height="300px" viewBox="0 0 300 300" version="1.1" xmlns:xlink="http://www.w3.org/1999/xlink" xmlns="http://www.w3.org/2000/svg">
  <defs>
    <path d="M300 0L300 0L300 300L0 300L0 0L300 0Z" id="path_1" />
    <path d="M51.7213 167.829C51.7213 118.218 96.0871 78 150.815 78C205.543 78 249.909 118.218 249.909 167.829C249.909 169.492 249.859 171.145 249.761 172.786L51.8696 172.786C51.7711 171.145 51.7213 169.492 51.7213 167.829L51.7213 167.829Z" id="path_2" />
    <path d="M249.909 172.786C245.933 197.073 203.086 216.193 150.815 216.193C98.5443 216.193 55.6974 197.073 51.7213 172.786L249.909 172.786L249.909 172.786Z" id="path_3" />
    <path d="M87.3951 155.014C87.3951 125.996 115.937 102.472 151.145 102.472C186.354 102.472 214.896 125.996 214.896 155.014C214.896 184.032 186.354 207.556 151.145 207.556C115.937 207.556 87.3951 184.032 87.3951 155.014Z" id="path_4" />
    <path d="M193.523 199.91C194.381 191.015 216.55 186.263 243.039 189.296C269.527 192.33 290.304 201.999 289.446 210.894C288.588 219.789 266.419 224.541 239.931 221.508C213.443 218.475 192.665 208.805 193.523 199.91Z" id="path_5" />
    <path d="M11.8538 210.706C10.9957 201.811 31.7731 192.142 58.2615 189.108C84.7499 186.075 106.919 190.827 107.777 199.722C108.635 208.617 87.8574 218.287 61.369 221.32C34.8806 224.353 12.7119 219.601 11.8538 210.706Z" id="path_6" />
    <path d="M245.234 114.15L240.343 122.584Q240.296 122.664 240.245 122.741Q240.194 122.818 240.138 122.892Q240.082 122.966 240.021 123.036Q239.961 123.106 239.896 123.173Q239.831 123.239 239.763 123.301Q239.694 123.363 239.622 123.421Q239.549 123.479 239.474 123.532Q239.398 123.586 239.319 123.634Q239.24 123.683 239.158 123.726Q239.077 123.77 238.992 123.808Q238.908 123.847 238.821 123.88Q238.735 123.913 238.647 123.941Q238.558 123.968 238.468 123.99Q238.378 124.013 238.287 124.029Q238.196 124.046 238.104 124.057Q238.012 124.068 237.92 124.073Q237.827 124.078 237.734 124.078Q237.642 124.077 237.549 124.071Q237.457 124.065 237.365 124.053Q237.273 124.041 237.182 124.024Q237.091 124.006 237.002 123.983Q236.912 123.96 236.824 123.931Q236.736 123.903 236.649 123.869Q236.563 123.835 236.479 123.796Q236.395 123.756 236.314 123.712Q236.233 123.668 236.154 123.618Q236.076 123.569 236.001 123.515Q235.925 123.461 235.854 123.403Q235.782 123.344 235.714 123.281Q235.646 123.218 235.582 123.151Q235.518 123.084 235.458 123.013Q235.398 122.943 235.343 122.868L231.646 117.894Q231.595 117.825 231.547 117.753Q231.5 117.682 231.457 117.608Q231.415 117.534 231.376 117.457Q231.337 117.381 231.303 117.302Q231.269 117.224 231.239 117.144Q231.21 117.063 231.185 116.981Q231.16 116.899 231.139 116.816Q231.119 116.733 231.103 116.649Q231.088 116.565 231.077 116.48Q231.067 116.395 231.061 116.309Q231.055 116.224 231.054 116.138Q231.053 116.053 231.057 115.967Q231.061 115.882 231.07 115.797Q231.078 115.711 231.092 115.627Q231.106 115.542 231.124 115.459Q231.143 115.375 231.166 115.293Q231.189 115.21 231.217 115.129Q231.245 115.049 231.277 114.969Q231.31 114.89 231.347 114.813Q231.383 114.736 231.425 114.661Q231.466 114.586 231.511 114.513Q231.557 114.44 231.606 114.371Q231.656 114.301 231.709 114.234Q231.763 114.167 231.82 114.103Q231.877 114.04 231.938 113.979Q231.999 113.919 232.063 113.862Q232.127 113.805 232.194 113.752Q232.261 113.699 232.331 113.65Q232.401 113.601 232.474 113.556Q232.547 113.511 232.622 113.47Q232.697 113.429 232.775 113.393Q232.852 113.356 232.932 113.324L241.521 109.865Q241.629 109.821 241.739 109.786Q241.85 109.751 241.963 109.725Q242.077 109.699 242.192 109.682Q242.306 109.664 242.422 109.656Q242.538 109.647 242.654 109.648Q242.771 109.648 242.886 109.658Q243.002 109.667 243.117 109.686Q243.232 109.704 243.345 109.731Q243.458 109.759 243.568 109.795Q243.679 109.831 243.786 109.875Q243.893 109.919 243.997 109.972Q244.101 110.024 244.2 110.085Q244.299 110.145 244.393 110.213Q244.488 110.281 244.576 110.356Q244.665 110.431 244.748 110.513Q244.83 110.594 244.907 110.682Q244.983 110.77 245.052 110.863Q245.121 110.957 245.182 111.055Q245.244 111.154 245.298 111.257Q245.352 111.36 245.397 111.467Q245.443 111.574 245.48 111.684Q245.518 111.794 245.546 111.906Q245.575 112.019 245.595 112.133Q245.615 112.248 245.626 112.364Q245.637 112.479 245.639 112.595Q245.64 112.712 245.633 112.828Q245.626 112.944 245.61 113.059Q245.594 113.174 245.57 113.287Q245.545 113.401 245.511 113.512Q245.478 113.623 245.435 113.732Q245.393 113.84 245.343 113.945Q245.293 114.049 245.234 114.15Z" id="path_7" />
    <clipPath id="clip_1">
      <use xlink:href="#path_1" clip-rule="evenodd" fill-rule="evenodd" />
    </clipPath>
    <clipPath id="clip_2">
      <use xlink:href="#path_2" />
    </clipPath>
    <clipPath id="clip_3">
      <use xlink:href="#path_3" />
    </clipPath>
    <clipPath id="clip_4">
      <use xlink:href="#path_4" />
    </clipPath>
    <clipPath id="clip_5">
      <use xlink:href="#path_5" />
    </clipPath>
    <clipPath id="clip_6">
      <use xlink:href="#path_6" />
    </clipPath>
    <clipPath id="clip_7">
      <use xlink:href="#path_7" />
    </clipPath>
  </defs>
  <g id="Frame" clip-path="url(#clip_1)">
    <path d="M300 0L300 0L300 300L0 300L0 0L300 0Z" id="Frame" fill="#FFFFFF" fill-opacity="0" stroke="none" />
    <g id="Oval-2">
      <use stroke="none" fill="#103801" xlink:href="#path_2" fill-rule="evenodd" />
      <g clip-path="url(#clip_2)">
        <use xlink:href="#path_2" fill="none" stroke="#000000" stroke-width="2" />
      </g>
    </g>
    <g id="Oval-3">
      <use stroke="none" fill="#F8CF82" xlink:href="#path_3" fill-rule="evenodd" />
      <g clip-path="url(#clip_3)">
        <use xlink:href="#path_3" fill="none" stroke="#000000" stroke-width="2" />
      </g>
    </g>
    <g id="Oval">
      <use stroke="none" fill="#40C900" xlink:href="#path_4" fill-rule="evenodd" />
      <g clip-path="url(#clip_4)">
        <use xlink:href="#path_4" fill="none" stroke="#000000" stroke-width="2" />
      </g>
    </g>
    <path d="M144.869 158.973C144.869 157.979 145.609 157.173 146.521 157.173C147.433 157.173 148.173 157.979 148.173 158.973C148.173 159.966 147.433 160.772 146.521 160.772C145.609 160.772 144.869 159.966 144.869 158.973Z" id="Oval-7" fill="#014C16" fill-rule="evenodd" stroke="none" />
    <path d="M154.118 158.973C154.118 157.979 154.858 157.173 155.77 157.173C156.682 157.173 157.421 157.979 157.421 158.973C157.421 159.966 156.682 160.772 155.77 160.772C154.858 160.772 154.118 159.966 154.118 158.973Z" id="Oval-7-Copy" fill="#014C16" fill-rule="evenodd" stroke="none" />
    <path d="M113.106 168.223C113.106 168.223 132.994 176.416 152.229 176.371C171.463 176.326 190.046 168.043 190.046 168.043" id="Vector" fill="none" fill-rule="evenodd" stroke="#000000" stroke-width="1" />
    <g id="Oval-4">
      <use stroke="none" fill="#40C900" xlink:href="#path_5" fill-rule="evenodd" />
      <g clip-path="url(#clip_5)">
        <use xlink:href="#path_5" fill="none" stroke="#194700" stroke-width="2" />
      </g>
    </g>
    <g id="Oval-4-Copy">
      <use stroke="none" fill="#40C900" xlink:href="#path_6" fill-rule="evenodd" />
      <g clip-path="url(#clip_6)">
        <use xlink:href="#path_6" fill="none" stroke="#194700" stroke-width="2" />
      </g>
    </g>
    <g id="Triangle">
      <use stroke="none" fill="#40C900" xlink:href="#path_7" fill-rule="evenodd" />
      <g clip-path="url(#clip_7)">
        <use xlink:href="#path_7" fill="none" stroke="#224700" stroke-width="2" />
      </g>
    </g>
    <path d="M103.911 164.731C103.911 161.749 106.277 159.332 109.196 159.332C112.115 159.332 114.481 161.749 114.481 164.731C114.481 167.712 112.115 170.129 109.196 170.129C106.277 170.129 103.911 167.712 103.911 164.731Z" id="Oval-6" fill="#F98AB5" fill-rule="evenodd" stroke="none" />
    <path d="M187.81 164.731C187.81 161.749 190.176 159.332 193.095 159.332C196.014 159.332 198.38 161.749 198.38 164.731C198.38 167.712 196.014 170.129 193.095 170.129C190.176 170.129 187.81 167.712 187.81 164.731Z" id="Oval-6-Copy" fill="#F98AB5" fill-rule="evenodd" stroke="none" />
    <path d="M53.3482 163.6L87.3951 155.014" id="Line-2" fill="none" fill-rule="evenodd" stroke="#446A02" stroke-width="1" stroke-linecap="square" />
    <path d="M175.919 141.698C175.919 137.922 178.729 134.861 182.195 134.861C185.661 134.861 188.471 137.922 188.471 141.698C188.471 145.475 185.661 148.536 182.195 148.536C178.729 148.536 175.919 145.475 175.919 141.698Z" id="Oval-5-Copy" fill="#000000" fill-rule="evenodd" stroke="none" />
    <path d="M214.896 155.014L248.973 163.459" id="Line-2-Copy" fill="none" fill-rule="evenodd" stroke="#446A02" stroke-width="1" stroke-linecap="square" />
    <path d="M187.039 112.308L216.836 102.01" id="Line-4" fill="none" fill-rule="evenodd" stroke="#446A02" stroke-width="1" stroke-linecap="square" />
    <path d="M113.82 141.698C113.82 137.922 116.63 134.861 120.096 134.861C123.562 134.861 126.372 137.922 126.372 141.698C126.372 145.475 123.562 148.536 120.096 148.536C116.63 148.536 113.82 145.475 113.82 141.698Z" id="Oval-5" fill="#000000" fill-rule="evenodd" stroke="none" />
    <path d="M82.9226 103.191L112.279 113.489" id="Line-4-Copy" fill="none" fill-rule="evenodd" stroke="#446A02" stroke-width="1" stroke-linecap="square" />
  </g>
</svg>