<?xml version="1.0" encoding="utf-8"?>
<svg width="300px" height="300px" viewBox="0 0 300 300" version="1.1" xmlns:xlink="http://www.w3.org/1999/xlink" xmlns="http://www.w3.org/2000/svg">
  <defs>
    <path d="M300 0L300 0L300 300L0 300L0 0L300 0Z" id="path_1" />
    <path d="M144.45 78.9437L147.384 83.4106L151.159 79.668L153.125 84.664L157.574 81.8093L158.486 87.1161L163.416 85.274L163.234 90.6596L168.428 89.9107L167.16 95.1396L172.393 95.5166L170.095 100.361L175.137 101.847L171.908 106.094L176.539 108.625L172.521 112.09L176.539 115.554L171.908 118.085L175.137 122.332L170.095 123.819L172.393 128.662L167.16 129.039L168.428 134.268L163.234 133.519L163.416 138.905L158.486 137.063L157.574 142.37L153.125 139.515L151.159 144.511L147.384 140.768L144.45 145.235L141.516 140.768L137.742 144.511L135.776 139.515L131.326 142.37L130.415 137.063L125.485 138.905L125.667 133.519L120.472 134.268L121.74 129.039L116.507 128.662L118.806 123.819L113.764 122.332L116.992 118.085L112.361 115.554L116.379 112.09L112.361 108.625L116.992 106.094L113.763 101.847L118.806 100.361L116.507 95.5166L121.74 95.1396L120.472 89.9107L125.667 90.6596L125.485 85.274L130.415 87.1161L131.326 81.8093L135.776 84.6641L137.742 79.668L141.516 83.4106L144.45 78.9437Z" id="path_2" />
    <path d="M156.746 223.128C158.543 218.976 162.565 216.084 167.238 216.084C173.586 216.084 178.733 221.421 178.733 228.003C178.733 229.038 178.605 230.042 178.366 231L158.67 231L158.664 231L152.823 231C150.649 231 148.887 229.238 148.887 227.064C148.887 226.787 148.915 226.517 148.97 226.256C148.916 226.134 148.887 225.999 148.887 225.857L148.887 219.57C148.887 219.018 149.334 218.57 149.887 218.57L154.743 218.57C155.296 218.57 155.743 219.018 155.743 219.57L155.743 223.128L156.746 223.128Z" id="path_3" />
    <path d="M112.184 228.003C112.184 221.421 117.331 216.084 123.679 216.084C128.352 216.084 132.374 218.976 134.171 223.128L135.174 223.128L135.174 219.569Q135.174 219.471 135.193 219.374Q135.212 219.278 135.25 219.187Q135.287 219.096 135.342 219.014Q135.397 218.933 135.466 218.863Q135.536 218.793 135.618 218.739Q135.7 218.684 135.79 218.646Q135.881 218.609 135.978 218.59Q136.074 218.57 136.173 218.57L141.031 218.57Q141.13 218.57 141.226 218.59Q141.323 218.609 141.413 218.646Q141.504 218.684 141.586 218.739Q141.668 218.793 141.738 218.863Q141.807 218.933 141.862 219.014Q141.917 219.096 141.954 219.187Q141.992 219.278 142.011 219.374Q142.03 219.471 142.03 219.569L142.03 225.858Q142.03 226.066 141.947 226.257Q142.03 226.656 142.03 227.063L142.03 227.064Q142.03 227.258 142.011 227.45Q141.992 227.643 141.955 227.832Q141.917 228.022 141.861 228.207Q141.805 228.392 141.731 228.571Q141.657 228.749 141.565 228.92Q141.474 229.09 141.367 229.251Q141.26 229.412 141.137 229.561Q141.014 229.711 140.878 229.847Q140.741 229.984 140.591 230.107Q140.442 230.229 140.281 230.337Q140.12 230.444 139.95 230.535Q139.779 230.626 139.601 230.7Q139.422 230.774 139.237 230.831Q139.052 230.887 138.862 230.924Q138.673 230.962 138.48 230.981Q138.288 231 138.095 231L132.253 231L132.246 231L112.551 231C112.312 230.042 112.184 229.038 112.184 228.003Z" id="path_4" />
    <clipPath id="clip_1">
      <use xlink:href="#path_1" clip-rule="evenodd" fill-rule="evenodd" />
    </clipPath>
    <clipPath id="clip_2">
      <use xlink:href="#path_2" />
    </clipPath>
    <clipPath id="clip_3">
      <use xlink:href="#path_3" />
    </clipPath>
    <clipPath id="clip_4">
      <use xlink:href="#path_4" />
    </clipPath>
  </defs>
  <g id="Frame" clip-path="url(#clip_1)">
    <path d="M300 0L300 0L300 300L0 300L0 0L300 0Z" id="Frame" fill="#FFFFFF" fill-opacity="0" stroke="none" />
    <g id="Star">
      <use stroke="none" fill="#8102FF" xlink:href="#path_2" fill-rule="evenodd" />
      <g clip-path="url(#clip_2)">
        <use xlink:href="#path_2" fill="none" stroke="#4D026D" stroke-width="2" />
      </g>
    </g>
    <path d="M148.483 104.425C148.483 103.166 149.477 102.146 150.702 102.146C151.927 102.146 152.92 103.166 152.92 104.425C152.92 105.683 151.927 106.703 150.702 106.703C149.477 106.703 148.483 105.683 148.483 104.425Z" id="Oval-3-Copy" fill="#000000" fill-rule="evenodd" stroke="none" />
    <path d="M44.0227 130.32C44.0227 130.32 65.8141 90.634 90.921 87.4453C116.028 84.2567 144.45 117.565 144.45 117.565" id="Vector-Copy-3" fill="none" fill-rule="evenodd" stroke="#8102FF" stroke-width="5" />
    <path d="M156.147 112.09C156.147 112.09 177.938 72.4038 203.045 69.2151C228.152 66.0265 256.574 99.3348 256.574 99.3348" id="Vector-Copy-2" fill="none" fill-rule="evenodd" stroke="#8102FF" stroke-width="5" />
    <path d="M17 83.087C17 83.087 46.3178 126.589 80.0961 130.084C113.874 133.579 152.113 97.0681 152.113 97.0681" id="Vector-Copy" fill="none" fill-rule="evenodd" stroke="#8102FF" stroke-width="5" />
    <path d="M148.887 91.7877C148.887 91.7877 178.204 135.289 211.983 138.785C245.761 142.28 284 105.769 284 105.769" id="Vector" fill="none" fill-rule="evenodd" stroke="#8102FF" stroke-width="5" />
    <path d="M138.497 139.02L138.497 223.542" id="Line" fill="none" fill-rule="evenodd" stroke="#8102FF" stroke-width="5" stroke-linecap="square" />
    <path d="M152.21 139.02L152.21 223.542" id="Line-Copy" fill="none" fill-rule="evenodd" stroke="#8102FF" stroke-width="5" stroke-linecap="square" />
    <g id="Oval-Union">
      <use stroke="none" fill="#000000" xlink:href="#path_3" fill-rule="evenodd" />
      <g clip-path="url(#clip_3)">
        <use xlink:href="#path_3" fill="none" stroke="#FFFFFF" stroke-width="2" />
      </g>
    </g>
    <g id="Oval-Union-Copy">
      <use stroke="none" fill="#000000" xlink:href="#path_4" fill-rule="evenodd" />
      <g clip-path="url(#clip_4)">
        <use xlink:href="#path_4" fill="none" stroke="#FFFFFF" stroke-width="2" />
      </g>
    </g>
    <path d="M140.417 115.404C135.739 115.404 131.947 118.279 131.947 121.826C131.947 122.714 132.185 123.559 132.614 124.328L156.69 124.328C157.119 123.559 157.356 122.714 157.356 121.826C157.356 118.279 153.564 115.404 148.887 115.404C147.344 115.404 145.898 115.717 144.652 116.263C143.406 115.717 141.96 115.404 140.417 115.404L140.417 115.404Z" id="Oval-Union-2" fill="#000000" fill-rule="evenodd" stroke="none" />
    <path d="M132.754 124.105C132.754 122.274 138.144 120.79 144.793 120.79C151.442 120.79 156.832 122.274 156.832 124.105C156.832 125.935 151.442 127.419 144.793 127.419C138.144 127.419 132.754 125.935 132.754 124.105Z" id="Oval-2" fill="#FC4850" fill-rule="evenodd" stroke="none" />
    <path d="M136.384 104.425C136.384 103.166 137.377 102.146 138.602 102.146C139.827 102.146 140.82 103.166 140.82 104.425C140.82 105.683 139.827 106.703 138.602 106.703C137.377 106.703 136.384 105.683 136.384 104.425Z" id="Oval-3" fill="#000000" fill-rule="evenodd" stroke="none" />
    <path d="M146.935 102.146L152.92 99.3788" id="Line-2" fill="none" fill-rule="evenodd" stroke="#000000" stroke-opacity="0.5" stroke-width="1.5" stroke-linecap="square" />
    <path d="M136.384 99.2455L142.368 102.012" id="Line-2-Copy" fill="none" fill-rule="evenodd" stroke="#000000" stroke-opacity="0.5" stroke-width="1.5" stroke-linecap="square" />
  </g>
</svg>