<?xml version="1.0" encoding="utf-8"?>
<svg width="300px" height="300px" viewBox="0 0 300 300" version="1.1" xmlns:xlink="http://www.w3.org/1999/xlink" xmlns="http://www.w3.org/2000/svg">
  <defs>
    <path d="M300 0L300 0L300 300L0 300L0 0L300 0Z" id="path_1" />
    <path d="M146.901 18L148.577 23.507L153.277 20.0053L151.289 25.4141L157.217 25.2553L152.324 28.5L157.217 31.7447L151.289 31.5859L153.277 36.9947L148.577 33.493L146.901 39L145.225 33.493L140.525 36.9947L142.513 31.5859L136.584 31.7447L141.477 28.5L136.584 25.2553L142.513 25.4141L140.525 20.0053L145.225 23.507L146.901 18Z" id="path_2" />
    <path d="M107.033 221.25C109.795 221.25 112.033 223.488 112.033 226.25L112.033 277C112.033 279.762 109.795 282 107.033 282L101.536 282C98.7746 282 96.5364 279.762 96.5364 277L96.5364 226.25C96.5364 223.488 98.7746 221.25 101.536 221.25L107.033 221.25Z" id="path_3" />
    <path d="M194.589 221.25C197.351 221.25 199.589 223.488 199.589 226.25L199.589 277C199.589 279.762 197.351 282 194.589 282L189.093 282C186.331 282 184.093 279.762 184.093 277L184.093 226.25C184.093 223.488 186.331 221.25 189.093 221.25L194.589 221.25Z" id="path_4" />
    <path d="M202.556 28.5C221.889 28.5 237.556 44.1674 237.556 63.5L237.556 196C237.556 215.333 221.889 231 202.556 231L92.0199 231C72.6873 231 57.0199 215.333 57.0199 196L57.0199 63.5C57.0199 44.1674 72.6873 28.5 92.0199 28.5L202.556 28.5Z" id="path_5" />
    <path d="M52.6211 179.064L54.8288 174.482Q54.8812 174.373 54.9388 174.267Q54.9965 174.16 55.0591 174.057Q55.1218 173.954 55.1894 173.854Q55.257 173.754 55.3293 173.657Q55.4017 173.56 55.4786 173.467Q55.5556 173.374 55.6369 173.285Q55.7182 173.195 55.8038 173.11Q55.8894 173.025 55.9789 172.944Q56.0685 172.863 56.1619 172.786Q56.2553 172.71 56.3522 172.638Q56.4492 172.566 56.5496 172.498Q56.6499 172.431 56.7534 172.369Q56.8568 172.306 56.9632 172.249Q57.0696 172.192 57.1786 172.14Q57.2876 172.088 57.3989 172.041Q57.5103 171.994 57.6238 171.953Q57.7374 171.912 57.8527 171.876Q57.9681 171.84 58.0851 171.81Q58.202 171.78 58.3203 171.755Q58.4386 171.731 58.5579 171.712Q58.6773 171.693 58.7974 171.68Q58.9175 171.668 59.0381 171.66Q59.1586 171.653 59.2794 171.652Q59.4002 171.651 59.5209 171.655Q59.6416 171.66 59.762 171.67Q59.8823 171.68 60.002 171.697Q60.1217 171.713 60.2405 171.735Q60.3593 171.757 60.4769 171.784Q60.5945 171.812 60.7106 171.845Q60.8267 171.878 60.9411 171.917Q61.0555 171.956 61.1679 172Q61.2802 172.045 61.3903 172.094L138.062 206.701Q138.176 206.753 138.287 206.81Q138.398 206.866 138.506 206.929Q138.614 206.991 138.719 207.059Q138.823 207.126 138.925 207.199Q139.026 207.272 139.123 207.35Q139.221 207.428 139.314 207.51Q139.408 207.593 139.497 207.68Q139.586 207.767 139.671 207.858Q139.756 207.95 139.836 208.045Q139.916 208.141 139.992 208.24Q140.067 208.339 140.137 208.443Q140.207 208.546 140.272 208.652Q140.337 208.758 140.397 208.868Q140.456 208.977 140.511 209.09Q140.565 209.202 140.613 209.317Q140.661 209.432 140.704 209.549Q140.747 209.666 140.784 209.785Q140.82 209.905 140.851 210.025Q140.882 210.146 140.906 210.269Q140.931 210.391 140.95 210.514Q140.968 210.637 140.981 210.761Q140.993 210.885 140.999 211.01Q141.005 211.135 141.005 211.259Q141.005 211.384 140.999 211.508Q140.993 211.633 140.981 211.757Q140.968 211.881 140.95 212.004Q140.931 212.128 140.906 212.25Q140.881 212.372 140.851 212.493Q140.82 212.614 140.783 212.733Q140.746 212.852 140.704 212.969Q140.661 213.087 140.613 213.201Q140.564 213.316 140.51 213.429L138.302 218.011Q138.25 218.12 138.192 218.226Q138.135 218.333 138.072 218.436Q138.009 218.539 137.942 218.639Q137.874 218.739 137.802 218.836Q137.729 218.933 137.652 219.026Q137.576 219.119 137.494 219.208Q137.413 219.298 137.327 219.383Q137.242 219.468 137.152 219.549Q137.063 219.63 136.969 219.707Q136.876 219.783 136.779 219.855Q136.682 219.927 136.582 219.995Q136.481 220.062 136.378 220.124Q136.274 220.187 136.168 220.244Q136.062 220.301 135.953 220.353Q135.844 220.405 135.732 220.452Q135.621 220.499 135.507 220.54Q135.394 220.581 135.278 220.617Q135.163 220.653 135.046 220.683Q134.929 220.713 134.811 220.738Q134.692 220.762 134.573 220.781Q134.454 220.8 134.334 220.813Q134.214 220.825 134.093 220.833Q133.972 220.84 133.852 220.841Q133.731 220.842 133.61 220.838Q133.489 220.833 133.369 220.823Q133.249 220.813 133.129 220.796Q133.009 220.78 132.891 220.758Q132.772 220.736 132.654 220.709Q132.537 220.681 132.42 220.648Q132.304 220.615 132.19 220.576Q132.076 220.537 131.963 220.493Q131.851 220.448 131.741 220.399L55.0686 185.792Q54.955 185.74 54.844 185.684Q54.7331 185.627 54.6251 185.564Q54.5171 185.502 54.4124 185.434Q54.3076 185.367 54.2064 185.294Q54.1052 185.221 54.0077 185.143Q53.9102 185.065 53.8167 184.983Q53.7232 184.9 53.634 184.813Q53.5447 184.726 53.4599 184.635Q53.3751 184.543 53.295 184.448Q53.2148 184.352 53.1396 184.253Q53.0643 184.154 52.9941 184.051Q52.9238 183.947 52.8588 183.841Q52.7938 183.735 52.7342 183.625Q52.6746 183.516 52.6205 183.403Q52.5664 183.291 52.518 183.176Q52.4696 183.061 52.4269 182.944Q52.3843 182.827 52.3475 182.708Q52.3108 182.588 52.2801 182.468Q52.2493 182.347 52.2246 182.225Q52.1999 182.102 52.1814 181.979Q52.1628 181.856 52.1504 181.732Q52.138 181.608 52.1318 181.483Q52.1256 181.358 52.1256 181.234Q52.1256 181.109 52.1319 180.985Q52.1381 180.86 52.1505 180.736Q52.163 180.612 52.1816 180.489Q52.2002 180.365 52.2249 180.243Q52.2496 180.121 52.2804 180Q52.3112 179.879 52.3479 179.76Q52.3847 179.641 52.4274 179.524Q52.4701 179.407 52.5185 179.292Q52.567 179.177 52.6211 179.064Z" id="path_6" />
    <path d="M238.88 175.419L236.257 171.02Q236.195 170.916 236.128 170.816Q236.062 170.716 235.99 170.618Q235.919 170.521 235.843 170.428Q235.767 170.334 235.686 170.245Q235.606 170.155 235.521 170.069Q235.436 169.983 235.348 169.902Q235.259 169.82 235.166 169.743Q235.074 169.665 234.978 169.593Q234.882 169.52 234.782 169.452Q234.683 169.384 234.58 169.321Q234.477 169.258 234.372 169.2Q234.266 169.142 234.158 169.089Q234.049 169.036 233.939 168.988Q233.828 168.941 233.715 168.898Q233.602 168.856 233.487 168.819Q233.372 168.783 233.256 168.751Q233.14 168.72 233.022 168.695Q232.904 168.669 232.785 168.649Q232.666 168.63 232.546 168.615Q232.427 168.601 232.307 168.593Q232.186 168.585 232.066 168.582Q231.945 168.58 231.825 168.583Q231.704 168.586 231.584 168.596Q231.464 168.605 231.344 168.62Q231.225 168.635 231.106 168.655Q230.987 168.676 230.87 168.702Q230.752 168.728 230.636 168.76Q230.519 168.792 230.405 168.83Q230.29 168.868 230.178 168.911Q230.065 168.954 229.955 169.002Q229.844 169.05 229.736 169.104Q229.629 169.158 229.523 169.217L156.28 210.148Q156.171 210.209 156.065 210.276Q155.959 210.342 155.856 210.414Q155.754 210.485 155.655 210.562Q155.556 210.638 155.462 210.72Q155.367 210.801 155.276 210.887Q155.186 210.973 155.099 211.063Q155.013 211.154 154.932 211.249Q154.85 211.343 154.773 211.442Q154.697 211.54 154.625 211.643Q154.553 211.745 154.487 211.851Q154.42 211.957 154.359 212.066Q154.298 212.174 154.242 212.286Q154.186 212.398 154.136 212.513Q154.086 212.627 154.042 212.744Q153.998 212.861 153.96 212.98Q153.921 213.099 153.889 213.22Q153.857 213.34 153.83 213.462Q153.804 213.585 153.784 213.708Q153.764 213.831 153.75 213.955Q153.736 214.08 153.728 214.204Q153.721 214.329 153.719 214.454Q153.718 214.579 153.722 214.704Q153.727 214.829 153.738 214.953Q153.749 215.077 153.766 215.201Q153.784 215.325 153.807 215.448Q153.83 215.57 153.86 215.692Q153.889 215.813 153.925 215.933Q153.96 216.053 154.002 216.171Q154.043 216.289 154.09 216.404Q154.138 216.52 154.191 216.633Q154.244 216.746 154.302 216.857Q154.361 216.967 154.425 217.074L157.048 221.473Q157.11 221.577 157.177 221.677Q157.243 221.777 157.315 221.875Q157.386 221.972 157.462 222.065Q157.538 222.159 157.619 222.249Q157.699 222.338 157.784 222.424Q157.869 222.51 157.957 222.591Q158.046 222.673 158.139 222.75Q158.231 222.828 158.327 222.9Q158.423 222.973 158.523 223.041Q158.622 223.109 158.725 223.172Q158.828 223.235 158.934 223.293Q159.039 223.351 159.147 223.404Q159.256 223.457 159.366 223.505Q159.477 223.552 159.59 223.595Q159.703 223.637 159.818 223.674Q159.933 223.71 160.049 223.742Q160.165 223.773 160.283 223.798Q160.401 223.824 160.52 223.844Q160.639 223.863 160.759 223.878Q160.878 223.892 160.999 223.9Q161.119 223.908 161.239 223.911Q161.36 223.913 161.48 223.91Q161.601 223.907 161.721 223.897Q161.841 223.888 161.961 223.873Q162.08 223.859 162.199 223.838Q162.318 223.817 162.436 223.791Q162.553 223.764 162.669 223.733Q162.786 223.701 162.9 223.663Q163.015 223.625 163.127 223.582Q163.24 223.539 163.35 223.491Q163.461 223.443 163.569 223.389Q163.676 223.335 163.782 223.276L237.025 182.345Q237.134 182.284 237.24 182.217Q237.346 182.151 237.449 182.079Q237.551 182.008 237.65 181.931Q237.749 181.855 237.843 181.773Q237.938 181.692 238.029 181.606Q238.119 181.52 238.206 181.429Q238.292 181.339 238.373 181.244Q238.455 181.15 238.532 181.051Q238.608 180.953 238.68 180.85Q238.752 180.748 238.818 180.642Q238.885 180.536 238.946 180.427Q239.007 180.318 239.063 180.207Q239.119 180.095 239.169 179.98Q239.219 179.866 239.263 179.749Q239.307 179.632 239.345 179.513Q239.384 179.394 239.416 179.273Q239.448 179.153 239.475 179.031Q239.501 178.908 239.521 178.785Q239.541 178.662 239.555 178.538Q239.569 178.413 239.577 178.289Q239.584 178.164 239.586 178.039Q239.587 177.914 239.583 177.789Q239.578 177.664 239.567 177.54Q239.556 177.415 239.539 177.292Q239.521 177.168 239.498 177.045Q239.475 176.922 239.445 176.801Q239.416 176.68 239.38 176.56Q239.345 176.44 239.303 176.322Q239.262 176.204 239.215 176.089Q239.167 175.973 239.114 175.86Q239.061 175.747 239.003 175.636Q238.944 175.526 238.88 175.419Z" id="path_7" />
    <clipPath id="clip_1">
      <use xlink:href="#path_1" clip-rule="evenodd" fill-rule="evenodd" />
    </clipPath>
    <clipPath id="clip_2">
      <use xlink:href="#path_2" />
    </clipPath>
    <clipPath id="clip_3">
      <use xlink:href="#path_3" />
    </clipPath>
    <clipPath id="clip_4">
      <use xlink:href="#path_4" />
    </clipPath>
    <clipPath id="clip_5">
      <use xlink:href="#path_5" />
    </clipPath>
    <clipPath id="clip_6">
      <use xlink:href="#path_6" />
    </clipPath>
    <clipPath id="clip_7">
      <use xlink:href="#path_7" />
    </clipPath>
  </defs>
  <g id="Frame" clip-path="url(#clip_1)">
    <path d="M300 0L300 0L300 300L0 300L0 0L300 0Z" id="Frame" fill="#FFFFFF" fill-opacity="0" stroke="none" />
    <g id="Star">
      <use stroke="none" fill="#000000" xlink:href="#path_2" fill-rule="evenodd" />
      <g clip-path="url(#clip_2)">
        <use xlink:href="#path_2" fill="none" stroke="#FFFFFF" stroke-width="2" />
      </g>
    </g>
    <g id="Rectangle-2">
      <use stroke="none" fill="#808080" xlink:href="#path_3" />
      <g clip-path="url(#clip_3)">
        <use xlink:href="#path_3" fill="none" stroke="#FFFFFF" stroke-width="2" />
      </g>
    </g>
    <g id="Rectangle-2-Copy">
      <use stroke="none" fill="#808080" xlink:href="#path_4" />
      <g clip-path="url(#clip_4)">
        <use xlink:href="#path_4" fill="none" stroke="#FFFFFF" stroke-width="2" />
      </g>
    </g>
    <path d="M73.6989 183C73.6989 183 36.1508 197.147 33.1949 211.959C30.2391 226.772 61.8756 233.935 61.8756 233.935L132.954 242.25" id="Vector-3" fill="none" fill-rule="evenodd" stroke="none" />
    <path d="M212.419 185.25C212.419 185.25 262.775 198.322 266.739 212.01C270.703 225.697 228.275 232.316 228.275 232.316L132.954 240" id="Vector-3-Copy" fill="none" fill-rule="evenodd" stroke="none" />
    <g id="Rectangle">
      <use stroke="none" fill="#000000" xlink:href="#path_5" />
      <g clip-path="url(#clip_5)">
        <use xlink:href="#path_5" fill="none" stroke="#FFFFFF" stroke-width="4" />
      </g>
    </g>
    <g id="Rectangle-2-Copy-2">
      <use stroke="none" fill="#808080" xlink:href="#path_6" fill-rule="evenodd" />
      <g clip-path="url(#clip_6)">
        <use xlink:href="#path_6" fill="none" stroke="#FFFFFF" stroke-width="2" />
      </g>
    </g>
    <g id="Rectangle-2-Copy-3">
      <use stroke="none" fill="#808080" xlink:href="#path_7" fill-rule="evenodd" />
      <g clip-path="url(#clip_7)">
        <use xlink:href="#path_7" fill="none" stroke="#FFFFFF" stroke-width="2" />
      </g>
    </g>
    <path d="M33 91.2411C33 64.046 56.1996 42 84.8178 42C113.436 42 136.636 64.046 136.636 91.2411C136.636 118.436 113.436 140.482 84.8178 140.482C56.1996 140.482 33 118.436 33 91.2411Z" id="Oval" fill="#D8E4E9" fill-rule="evenodd" stroke="none" />
    <path d="M74.2254 51C74.2254 51 44.5701 69.6156 46.2402 90.2901C47.9103 110.965 51.3406 123.189 74.2254 128.55C97.1102 133.912 106.409 132.411 116.113 115.854C125.818 99.2975 127.082 84.3708 116.113 71.9318C105.145 59.4929 82.3503 66.0984 82.3503 66.0984C82.3503 66.0984 62.6703 78.7518 62.6703 90.2901C62.6703 101.828 73.9849 115.854 85.7206 115.854C97.4564 115.854 104.362 103.759 106.002 94.4079C107.642 85.0572 100.36 78.4516 92.2807 78.4516C84.201 78.4516 78.935 84.5853 77.295 90.2901C75.655 95.9949 81.9742 100.241 85.7206 101.271C89.4671 102.3 92.2807 97.153 92.2807 94.4079C92.2807 91.6627 89.0306 87.0301 89.0306 87.0301" id="Vector" fill="none" fill-rule="evenodd" stroke="#000000" stroke-width="12" />
    <path d="M136.053 88.9312C136.053 88.9312 141.455 85.5 146.866 85.5C152.278 85.5 157.699 88.9312 157.699 88.9312" id="Vector-2" fill="none" fill-rule="evenodd" stroke="#FFFFFF" stroke-width="6" />
    <path d="M245.562 126.662C266.148 107.771 266.721 76.5979 246.841 57.0354C226.961 37.4729 194.157 36.9288 173.571 55.8201C152.984 74.7114 152.412 105.884 172.292 125.447C192.171 145.009 224.976 145.553 245.562 126.662Z" id="Oval-Copy" fill="#D8E4E9" fill-rule="evenodd" stroke="none" />
    <path d="M134.503 166.659C134.503 166.659 141.503 160.5 147.968 160.5C154.434 160.5 160.366 166.659 160.366 166.659" id="Vector-4" fill="none" fill-rule="evenodd" stroke="#808080" stroke-width="5" />
    <path d="M247.443 70.3896C247.443 70.3896 253.951 103.593 237.141 116.813C220.33 130.033 208.694 136.18 188.738 124.261C168.782 112.342 163.459 104.943 169.251 86.808C175.043 68.6729 185.464 57.44 202.5 56.2968C219.535 55.1536 230.369 75.3239 230.369 75.3239C230.369 75.3239 234.462 97.5664 225.727 105.581C216.993 113.597 198.516 115.606 190.364 107.583C182.211 99.5613 186.57 86.4381 192.509 78.8215C198.448 71.2049 208.507 71.5941 214.12 77.1171C219.733 82.6401 218.748 90.5006 215.568 95.5845C212.389 100.669 204.785 99.2987 201.403 97.4528C198.021 95.607 199.963 90.1082 202.041 88.2012C204.119 86.2943 209.884 85.2979 209.884 85.2979" id="Vector-Copy" fill="none" fill-rule="evenodd" stroke="#000000" stroke-width="12" />
    <path d="M77.8807 21L50.0464 37.5325" id="Line-Copy" fill="none" fill-rule="evenodd" stroke="#BDBDBD" stroke-width="5" stroke-linecap="square" />
    <path d="M213.596 20.9675L241.43 37.5" id="Line" fill="none" fill-rule="evenodd" stroke="#BDBDBD" stroke-width="5" stroke-linecap="square" />
  </g>
</svg>