<?xml version="1.0" encoding="utf-8"?>
<svg width="720px" height="1280px" viewBox="0 0 720 1280" version="1.1" xmlns:xlink="http://www.w3.org/1999/xlink" xmlns="http://www.w3.org/2000/svg">
  <defs>
    <path d="M720 0L720 0L720 1280L0 1280L0 0L720 0Z" id="path_1" />
    <clipPath id="clip_1">
      <use xlink:href="#path_1" clip-rule="evenodd" fill-rule="evenodd" />
    </clipPath>
  </defs>
  <g id="Frame 4" clip-path="url(#clip_1)">
    <path d="M720 0L720 0L720 1280L0 1280L0 0L720 0Z" id="Frame-4" fill="#32682B" stroke="none" />
    <path d="M546.939 51.818C547.525 52.4039 547.525 53.3535 546.939 53.9394L546.939 53.9394C546.354 54.5252 545.404 54.5252 544.818 53.9394L532.797 41.9186C532.211 41.3327 532.211 40.3831 532.797 39.7972L532.797 39.7972C533.383 39.2114 534.333 39.2114 534.919 39.7972L546.939 51.818Z" id="Rectangle-80" fill="#48B33A" stroke="none" />
    <path d="M544.818 39.7972C545.404 39.2113 546.354 39.2113 546.939 39.7972L546.939 39.7972C547.525 40.3831 547.525 41.3326 546.939 41.9185L534.919 53.9393C534.333 54.5252 533.383 54.5252 532.797 53.9393L532.797 53.9393C532.211 53.3535 532.211 52.4039 532.797 51.818L544.818 39.7972Z" id="Rectangle-41" fill="#48B33A" stroke="none" />
    <path d="M36.6027 572.818C37.1886 573.404 37.1886 574.354 36.6027 574.939L36.6027 574.939C36.0168 575.525 35.0673 575.525 34.4814 574.939L22.4606 562.919C21.8747 562.333 21.8747 561.383 22.4606 560.797L22.4606 560.797C23.0464 560.211 23.996 560.211 24.5819 560.797L36.6027 572.818Z" id="Rectangle-81" fill="#48B33A" stroke="none" />
    <path d="M34.6027 560.655C35.1886 560.069 36.1382 560.069 36.724 560.655L36.724 560.655C37.3099 561.241 37.3099 562.191 36.724 562.776L24.7032 574.797C24.1174 575.383 23.1678 575.383 22.5819 574.797L22.5819 574.797C21.996 574.211 21.996 573.262 22.5819 572.676L34.6027 560.655Z" id="Rectangle-82" fill="#48B33A" stroke="none" />
    <path d="M53 191.5C53 192.329 52.3285 193 51.5 193L51.5 193C50.6715 193 50 192.329 50 191.5L50 149.5C50 148.671 50.6715 148 51.5 148L51.5 148C52.3285 148 53 148.671 53 149.5L53 191.5Z" id="Rectangle-59" fill="#48B33A" stroke="none" />
    <path d="M732.373 943L755 965.628L636.913 1083.71L614.286 1061.09L732.373 943Z" id="Rectangle-67" fill="#CBEA9D" fill-rule="evenodd" stroke="none" />
    <path d="M722.373 1044.31L745 1066.94L626.913 1185.03L604.286 1162.4L722.373 1044.31Z" id="Rectangle-70" fill="#CBEA9D" fill-rule="evenodd" stroke="none" />
    <path d="M731.373 756.286L754 778.913L635.913 897L613.286 874.373L731.373 756.286Z" id="Rectangle-75" fill="#CBEA9D" fill-rule="evenodd" stroke="none" />
    <path d="M-33.9998 900.627L-11.3723 878L128.635 1018.01L106.007 1040.63L-33.9998 900.627Z" id="Rectangle-87" fill="#CBEA9D" fill-rule="evenodd" stroke="none" />
    <path d="M-33.4626 808.627L-10.8352 786L132 928.835L109.373 951.463L-33.4626 808.627Z" id="Rectangle-88" fill="#CBEA9D" fill-rule="evenodd" stroke="none" />
    <path d="M-46 352.4L-23.3726 329.773L119.463 472.608L96.8356 495.236L-46 352.4Z" id="Rectangle-94" fill="#CBEA9D" fill-rule="evenodd" stroke="none" />
    <path d="M60.6001 71.3L74.6001 71.3L74.6001 85.3L60.6001 85.3L60.6001 71.3Z" id="Rectangle-79" fill="#48B33A" fill-rule="evenodd" stroke="none" />
    <path d="M-47 980.627L-24.3726 958L115.635 1098.01L93.0071 1120.63L-47 980.627Z" id="Rectangle-86" fill="#CBEA9D" fill-rule="evenodd" stroke="none" />
    <path d="M-34 901L-11.3726 878.373L128.635 1018.38L106.007 1041.01L-34 901Z" id="Rectangle-114" fill="#CBEA9D" fill-rule="evenodd" stroke="none" />
    <path d="M-47 981L-24.3726 958.373L128.362 1111.11L105.735 1133.74L-47 981Z" id="Rectangle-115" fill="#CBEA9D" fill-rule="evenodd" stroke="none" />
    <path d="M57 786C57 783.239 59.2386 781 62 781C64.7614 781 67 783.239 67 786C67 788.761 64.7614 791 62 791C59.2386 791 57 788.761 57 786Z" id="Oval-2" fill="#48B33A" fill-rule="evenodd" stroke="none" />
    <path d="M45.9998 1179L59.9998 1179L59.9998 1193L45.9998 1193L45.9998 1179Z" id="Rectangle-93" fill="#48B33A" fill-rule="evenodd" stroke="none" />
    <path d="M87 405.4L152 405.4L152 510.4L87 510.4L87 405.4Z" id="Rectangle-98" fill="#32682B" fill-rule="evenodd" stroke="none" />
    <path d="M97 863.5L162 863.5L162 1153.5L97 1153.5L97 863.5Z" id="Rectangle-116" fill="#32682B" fill-rule="evenodd" stroke="none" />
    <path d="M89.9998 457.9C89.9998 458.728 89.3283 459.4 88.4998 459.4L88.4998 459.4C87.6712 459.4 86.9998 458.728 86.9998 457.9L86.9998 440.9C86.9998 440.071 87.6712 439.4 88.4998 439.4L88.4998 439.4C89.3283 439.4 89.9998 440.071 89.9998 440.9L89.9998 457.9Z" id="Rectangle-107" fill="#48B33A" stroke="none" />
    <path d="M87 369L152 369L152 474L87 474L87 369Z" id="Rectangle-109" fill="#32682B" fill-rule="evenodd" stroke="none" />
    <path d="M90 421.5C90 422.329 89.3285 423 88.5 423L88.5 423C87.6715 423 87 422.329 87 421.5L87 404.5C87 403.671 87.6715 403 88.5 403L88.5 403C89.3285 403 90 403.671 90 404.5L90 421.5Z" id="Rectangle-110" fill="#48B33A" stroke="none" />
    <path d="M-46 274.9L-23.3726 252.273L119.463 395.108L96.8356 417.736L-46 274.9Z" id="Rectangle-111" fill="#CBEA9D" fill-rule="evenodd" stroke="none" />
    <path d="M87 327.9L152 327.9L152 432.9L87 432.9L87 327.9Z" id="Rectangle-112" fill="#32682B" fill-rule="evenodd" stroke="none" />
    <path d="M90 380.4C90 381.229 89.3285 381.9 88.5 381.9L88.5 381.9C87.6715 381.9 87 381.229 87 380.4L87 363.4C87 362.571 87.6715 361.9 88.5 361.9L88.5 361.9C89.3285 361.9 90 362.571 90 363.4L90 380.4Z" id="Rectangle-113" fill="#48B33A" stroke="none" />
    <path d="M591.286 736L637.286 736L637.286 1248L591.286 1248L591.286 736Z" id="Rectangle-97" fill="#32682B" fill-rule="evenodd" stroke="none" />
    <path d="M637 707.3C637 708.129 636.329 708.8 635.5 708.8L635.5 708.8C634.671 708.8 634 708.129 634 707.3L634 665.3C634 664.471 634.671 663.8 635.5 663.8L635.5 663.8C636.329 663.8 637 664.471 637 665.3L637 707.3Z" id="Rectangle-121" fill="#48B33A" stroke="none" />
    <path d="M637.286 1048.5C637.286 1049.33 636.614 1050 635.786 1050L635.786 1050C634.957 1050 634.286 1049.33 634.286 1048.5L634.286 1025.5C634.286 1024.67 634.957 1024 635.786 1024L635.786 1024C636.614 1024 637.286 1024.67 637.286 1025.5L637.286 1048.5Z" id="Rectangle-65" fill="#48B33A" stroke="none" />
    <path d="M637.286 1158.5C637.286 1159.33 636.614 1160 635.786 1160L635.786 1160C634.957 1160 634.286 1159.33 634.286 1158.5L634.286 1119.5C634.286 1118.67 634.957 1118 635.786 1118L635.786 1118C636.614 1118 637.286 1118.67 637.286 1119.5L637.286 1158.5Z" id="Rectangle-104" fill="#48B33A" stroke="none" />
    <path d="M28 266C28 263.239 30.2386 261 33 261C35.7614 261 38 263.239 38 266C38 268.761 35.7614 271 33 271C30.2386 271 28 268.761 28 266Z" id="Oval-3" fill="#48B33A" fill-rule="evenodd" stroke="none" />
    <path d="M617 306.993L639.627 284.365L779.635 424.373L757.007 447L617 306.993Z" id="Rectangle-116" fill="#CBEA9D" fill-rule="evenodd" stroke="none" />
    <path d="M604 386.993L626.627 364.365L766.635 504.373L744.007 527L604 386.993Z" id="Rectangle-117" fill="#CBEA9D" fill-rule="evenodd" stroke="none" />
    <path d="M617 306.993L639.627 284.365L779.635 424.373L757.007 447L617 306.993Z" id="Rectangle-118" fill="#CBEA9D" fill-rule="evenodd" stroke="none" />
    <path d="M604 386.993L626.627 364.365L766.635 504.373L744.007 527L604 386.993Z" id="Rectangle-119" fill="#CBEA9D" fill-rule="evenodd" stroke="none" />
    <path d="M666.5 528.4L674 543.4L659 543.4L666.5 528.4Z" id="Triangle-7" fill="#48B33A" fill-rule="evenodd" stroke="none" />
    <path d="M591 271L637 271L637 486L591 486L591 271Z" id="Rectangle-120" fill="#32682B" fill-rule="evenodd" stroke="none" />
    <path d="M637 429.5C637 430.329 636.329 431 635.5 431L635.5 431C634.671 431 634 430.329 634 429.5L634 362.5C634 361.671 634.671 361 635.5 361L635.5 361C636.329 361 637 361.671 637 362.5L637 429.5Z" id="Rectangle-122" fill="#48B33A" stroke="none" />
    <path d="M100 952.5C100 953.329 99.3288 954 98.5002 954L98.5002 954C97.6717 954 97.0002 953.329 97.0002 952.5L97.0002 925.5C97.0002 924.671 97.6717 924 98.5002 924L98.5002 924C99.3288 924 100 924.671 100 925.5L100 952.5Z" id="Rectangle-123" fill="#48B33A" stroke="none" />
    <path d="M100 1102.5C100 1103.33 99.3285 1104 98.5 1104L98.5 1104C97.6715 1104 97 1103.33 97 1102.5L97 1085.5C97 1084.67 97.6715 1084 98.5 1084L98.5 1084C99.3285 1084 100 1084.67 100 1085.5L100 1102.5Z" id="Rectangle-124" fill="#48B33A" stroke="none" />
  </g>
</svg>