<?xml version="1.0" encoding="utf-8"?>
<svg width="300px" height="300px" viewBox="0 0 300 300" version="1.1" xmlns:xlink="http://www.w3.org/1999/xlink" xmlns="http://www.w3.org/2000/svg">
  <defs>
    <path d="M200 0L200 0L200 200L0 200L0 0L200 0Z" id="path_1" />
    <clipPath id="clip_1">
      <use xlink:href="#path_1" clip-rule="evenodd" fill-rule="evenodd" />
    </clipPath>
  </defs>
  <path d="M0 150C0 67.1572 67.1572 0 150 0C232.843 0 300 67.1572 300 150C300 232.843 232.843 300 150 300C67.1572 300 0 232.843 0 150Z" id="Oval-3" fill="#9C6A39" fill-rule="evenodd" stroke="none" />
  <g id="attachment-2-svgrepo-com" clip-path="url(#clip_1)" transform="translate(49.00049 50)">
    <path d="M200 0L200 0L200 200L0 200L0 0L200 0Z" id="attachment-2-svgrepo-com" fill="none" stroke="none" />
    <path d="M189.738 72.7251L88.0401 173.294C71.1892 189.959 43.8663 189.959 27.0157 173.294C10.1648 156.636 10.1648 129.621 27.0157 112.956L118.549 22.4369C129.778 11.3292 147.993 11.3292 159.229 22.4369C170.458 33.5445 170.458 51.5597 159.229 62.6603L67.696 153.179C62.0816 158.736 52.9739 158.736 47.3523 153.179C41.7376 147.629 41.7376 138.621 47.3523 133.064L128.72 52.6098L118.549 42.5521L37.1875 123.013C25.9512 134.114 25.9512 152.129 37.1875 163.244C48.4167 174.344 66.6318 174.344 77.8681 163.237L169.394 72.7251C186.245 56.0671 186.252 29.0372 169.401 12.3792C152.543 -4.28592 125.228 -4.28592 108.377 12.3792L11.7576 107.92L12.1149 108.27C-5.44312 130.585 -3.89319 162.844 16.8437 183.352C37.5875 203.86 70.2034 205.396 92.7688 188.031L93.1189 188.381L199.91 82.7827L189.738 72.7251" id="Page-1" fill="#000000" fill-rule="evenodd" stroke="none" />
  </g>
</svg>