<?xml version="1.0" encoding="utf-8"?>
<svg width="720px" height="1280px" viewBox="0 0 720 1280" version="1.1" xmlns:xlink="http://www.w3.org/1999/xlink" xmlns="http://www.w3.org/2000/svg">
  <defs>
    <path d="M720 0L720 0L720 1280L0 1280L0 0L720 0Z" id="path_1" />
    <clipPath id="clip_1">
      <use xlink:href="#path_1" clip-rule="evenodd" fill-rule="evenodd" />
    </clipPath>
  </defs>
  <g id="Frame 4" clip-path="url(#clip_1)">
    <path d="M720 0L720 0L720 1280L0 1280L0 0L720 0Z" id="Frame-4" fill="#32682B" stroke="none" />
    <path d="M546.939 51.818C547.525 52.4039 547.525 53.3535 546.939 53.9394L546.939 53.9394C546.354 54.5252 545.404 54.5252 544.818 53.9394L532.797 41.9186C532.211 41.3327 532.211 40.3831 532.797 39.7972L532.797 39.7972C533.383 39.2114 534.333 39.2114 534.919 39.7972L546.939 51.818Z" id="Rectangle-80" fill="#48B33A" stroke="none" />
    <path d="M52.6001 654L66.6001 654L66.6001 668L52.6001 668L52.6001 654Z" id="Rectangle-79" fill="#48B33A" fill-rule="evenodd" stroke="none" />
    <path d="M39 702L53 702L53 716L39 716L39 702Z" id="Rectangle-93" fill="#48B33A" fill-rule="evenodd" stroke="none" />
    <path d="M544.818 39.7972C545.404 39.2113 546.354 39.2113 546.939 39.7972L546.939 39.7972C547.525 40.3831 547.525 41.3326 546.939 41.9185L534.919 53.9393C534.333 54.5252 533.383 54.5252 532.797 53.9393L532.797 53.9393C532.211 53.3535 532.211 52.4039 532.797 51.818L544.818 39.7972Z" id="Rectangle-41" fill="#48B33A" stroke="none" />
    <path d="M36.6027 572.818C37.1886 573.404 37.1886 574.354 36.6027 574.939L36.6027 574.939C36.0168 575.525 35.0673 575.525 34.4814 574.939L22.4606 562.919C21.8747 562.333 21.8747 561.383 22.4606 560.797L22.4606 560.797C23.0464 560.211 23.996 560.211 24.5819 560.797L36.6027 572.818Z" id="Rectangle-81" fill="#48B33A" stroke="none" />
    <path d="M34.6027 560.655C35.1886 560.069 36.1382 560.069 36.724 560.655L36.724 560.655C37.3099 561.241 37.3099 562.191 36.724 562.776L24.7032 574.797C24.1174 575.383 23.1678 575.383 22.5819 574.797L22.5819 574.797C21.996 574.211 21.996 573.262 22.5819 572.676L34.6027 560.655Z" id="Rectangle-82" fill="#48B33A" stroke="none" />
    <path d="M656 181.5C656 182.329 655.329 183 654.5 183L654.5 183C653.671 183 653 182.329 653 181.5L653 139.5C653 138.671 653.671 138 654.5 138L654.5 138C655.329 138 656 138.671 656 139.5L656 181.5Z" id="Rectangle-59" fill="#48B33A" stroke="none" />
    <path d="M96.7708 1202L119.398 1179.37L229 1288.97L206.372 1311.6L96.7708 1202Z" id="Rectangle-54" fill="#CBEA9D" fill-rule="evenodd" stroke="none" />
    <path d="M182.771 1201.63L205.398 1179L315 1288.6L292.372 1311.23L182.771 1201.63Z" id="Rectangle-85" fill="#CBEA9D" fill-rule="evenodd" stroke="none" />
    <path d="M733.087 591L755.714 613.628L637.628 731.714L615 709.087L733.087 591Z" id="Rectangle-67" fill="#CBEA9D" fill-rule="evenodd" stroke="none" />
    <path d="M723.087 692.314L745.714 714.942L627.628 833.029L605 810.401L723.087 692.314Z" id="Rectangle-70" fill="#CBEA9D" fill-rule="evenodd" stroke="none" />
    <path d="M732.087 404.286L754.715 426.913L636.628 545L614 522.373L732.087 404.286Z" id="Rectangle-75" fill="#CBEA9D" fill-rule="evenodd" stroke="none" />
    <path d="M732.087 321.286L754.715 343.913L636.628 462L614 439.373L732.087 321.286Z" id="Rectangle-76" fill="#CBEA9D" fill-rule="evenodd" stroke="none" />
    <path d="M80.771 -4.60159L103.398 -27.229L213 82.3725L190.373 105L80.771 -4.60159Z" id="Rectangle-86" fill="#CBEA9D" fill-rule="evenodd" stroke="none" />
    <path d="M166.771 -4.60159L189.398 -27.229L299 82.3725L276.373 105L166.771 -4.60159Z" id="Rectangle-87" fill="#CBEA9D" fill-rule="evenodd" stroke="none" />
    <path d="M492 1228C492 1225.24 494.239 1223 497 1223C499.761 1223 502 1225.24 502 1228C502 1230.76 499.761 1233 497 1233C494.239 1233 492 1230.76 492 1228Z" id="Oval-2" fill="#48B33A" fill-rule="evenodd" stroke="none" />
    <path d="M-33.9998 900.627L-11.3723 878L128.635 1018.01L106.007 1040.63L-33.9998 900.627Z" id="Rectangle-87" fill="#CBEA9D" fill-rule="evenodd" stroke="none" />
    <path d="M-33.4626 808.627L-10.8352 786L132 928.835L109.373 951.463L-33.4626 808.627Z" id="Rectangle-88" fill="#CBEA9D" fill-rule="evenodd" stroke="none" />
    <path d="M-53 260L-30.3726 237.373L112.463 380.208L89.8356 402.836L-53 260Z" id="Rectangle-94" fill="#CBEA9D" fill-rule="evenodd" stroke="none" />
    <path d="M-47 980.627L-24.3726 958L115.635 1098.01L93.0071 1120.63L-47 980.627Z" id="Rectangle-86" fill="#CBEA9D" fill-rule="evenodd" stroke="none" />
    <path d="M62 1169L268 1169L268 1210L62 1210L62 1169Z" id="Rectangle-95" fill="#32682B" fill-rule="evenodd" stroke="none" />
    <path d="M80 849L145 849L145 1136L80 1136L80 849Z" id="Rectangle-96" fill="#32682B" fill-rule="evenodd" stroke="none" />
    <path d="M82.9998 978.5C82.9998 979.329 82.3283 980 81.4998 980L81.4998 980C80.6712 980 79.9998 979.329 79.9998 978.5L79.9998 911.5C79.9998 910.671 80.6712 910 81.4998 910L81.4998 910C82.3283 910 82.9998 910.671 82.9998 911.5L82.9998 978.5Z" id="Rectangle-100" fill="#48B33A" stroke="none" />
    <path d="M83 1119.5C83 1120.33 82.3285 1121 81.5 1121L81.5 1121C80.6715 1121 80 1120.33 80 1119.5L80 1092.5C80 1091.67 80.6715 1091 81.5 1091L81.5 1091C82.3285 1091 83 1091.67 83 1092.5L83 1119.5Z" id="Rectangle-101" fill="#48B33A" stroke="none" />
    <path d="M141 1207C141.829 1207 142.5 1207.67 142.5 1208.5L142.5 1208.5C142.5 1209.33 141.829 1210 141 1210L114 1210C113.171 1210 112.5 1209.33 112.5 1208.5L112.5 1208.5C112.5 1207.67 113.171 1207 114 1207L141 1207Z" id="Rectangle-102" fill="#48B33A" stroke="none" />
    <path d="M228.5 1207C229.329 1207 230 1207.67 230 1208.5L230 1208.5C230 1209.33 229.329 1210 228.5 1210L181.5 1210C180.671 1210 180 1209.33 180 1208.5L180 1208.5C180 1207.67 180.671 1207 181.5 1207L228.5 1207Z" id="Rectangle-103" fill="#48B33A" stroke="none" />
    <path d="M80 313L145 313L145 418L80 418L80 313Z" id="Rectangle-98" fill="#32682B" fill-rule="evenodd" stroke="none" />
    <path d="M82.9998 365.5C82.9998 366.328 82.3283 367 81.4998 367L81.4998 367C80.6712 367 79.9998 366.328 79.9998 365.5L79.9998 348.5C79.9998 347.671 80.6712 347 81.4998 347L81.4998 347C82.3283 347 82.9998 347.671 82.9998 348.5L82.9998 365.5Z" id="Rectangle-107" fill="#48B33A" stroke="none" />
    <path d="M592 384L638 384L638 896L592 896L592 384Z" id="Rectangle-97" fill="#32682B" fill-rule="evenodd" stroke="none" />
    <path d="M638 696.5C638 697.329 637.329 698 636.5 698L636.5 698C635.671 698 635 697.329 635 696.5L635 673.5C635 672.671 635.671 672 636.5 672L636.5 672C637.329 672 638 672.671 638 673.5L638 696.5Z" id="Rectangle-65" fill="#48B33A" stroke="none" />
    <path d="M638 806.5C638 807.329 637.329 808 636.5 808L636.5 808C635.671 808 635 807.329 635 806.5L635 767.5C635 766.671 635.671 766 636.5 766L636.5 766C637.329 766 638 766.671 638 767.5L638 806.5Z" id="Rectangle-104" fill="#48B33A" stroke="none" />
    <path d="M638 469.5C638 470.329 637.329 471 636.5 471L636.5 471C635.671 471 635 470.329 635 469.5L635 410.5C635 409.671 635.671 409 636.5 409L636.5 409C637.329 409 638 409.671 638 410.5L638 469.5Z" id="Rectangle-105" fill="#48B33A" stroke="none" />
    <path d="M638 469.5C638 470.329 637.329 471 636.5 471L636.5 471C635.671 471 635 470.329 635 469.5L635 410.5C635 409.671 635.671 409 636.5 409L636.5 409C637.329 409 638 409.671 638 410.5L638 469.5Z" id="Rectangle-106" fill="#48B33A" stroke="none" />
    <path d="M146 81L321 81L321 129L146 129L146 81Z" id="Rectangle-99" fill="#32682B" fill-rule="evenodd" stroke="none" />
    <path d="M217.5 80.9999C218.329 80.9999 219 81.6713 219 82.4999L219 82.4999C219 83.3284 218.329 83.9999 217.5 83.9999L158.5 83.9999C157.672 83.9999 157 83.3284 157 82.4999L157 82.4999C157 81.6713 157.672 80.9999 158.5 80.9999L217.5 80.9999Z" id="Rectangle-108" fill="#48B33A" stroke="none" />
    <path d="M265.5 81C266.329 81 267 81.6715 267 82.5L267 82.5C267 83.3285 266.329 84 265.5 84L244.5 84C243.671 84 243 83.3285 243 82.5L243 82.5C243 81.6715 243.671 81 244.5 81L265.5 81Z" id="Rectangle-109" fill="#48B33A" stroke="none" />
    <path d="M653.7 591.5L668.7 584L668.7 599L653.7 591.5Z" id="Triangle-7" fill="#48B33A" fill-rule="evenodd" stroke="none" />
    <path d="M58.5 74L51 59L66 59L58.5 74Z" id="Triangle-8" fill="#48B33A" fill-rule="evenodd" stroke="none" />
    <path d="M653 1086C653 1083.24 655.239 1081 658 1081C660.761 1081 663 1083.24 663 1086C663 1088.76 660.761 1091 658 1091C655.239 1091 653 1088.76 653 1086Z" id="Oval-3" fill="#48B33A" fill-rule="evenodd" stroke="none" />
  </g>
</svg>