<?xml version="1.0" encoding="utf-8"?>
<svg width="720px" height="1280px" viewBox="0 0 720 1280" version="1.1" xmlns:xlink="http://www.w3.org/1999/xlink" xmlns="http://www.w3.org/2000/svg">
  <defs>
    <path d="M720 0L720 0L720 1280L0 1280L0 0L720 0Z" id="path_1" />
    <clipPath id="clip_1">
      <use xlink:href="#path_1" clip-rule="evenodd" fill-rule="evenodd" />
    </clipPath>
  </defs>
  <g id="Frame 4" clip-path="url(#clip_1)">
    <path d="M720 0L720 0L720 1280L0 1280L0 0L720 0Z" id="Frame-4" fill="#32682B" stroke="none" />
    <path d="M-45.8701 1082.13L-23.2427 1059.5L94.8441 1177.59L72.2167 1200.22L-45.8701 1082.13Z" id="Rectangle-52" fill="#CBEA9D" fill-rule="evenodd" stroke="none" />
    <path d="M-28.8994 1008.1L-6.272 985.473L94.8443 1086.59L72.2169 1109.22L-28.8994 1008.1Z" id="Rectangle-53" fill="#CBEA9D" fill-rule="evenodd" stroke="none" />
    <path d="M70 967L150 967L150 1206L70 1206L70 967Z" id="Rectangle-55" fill="#32682B" fill-rule="evenodd" stroke="none" />
    <path d="M73 1119.5C73 1120.33 72.3285 1121 71.5 1121L71.5 1121C70.6715 1121 70 1120.33 70 1119.5L70 1042.5C70 1041.67 70.6715 1041 71.5 1041L71.5 1041C72.3285 1041 73 1041.67 73 1042.5L73 1119.5Z" id="Rectangle-56" fill="#48B33A" stroke="none" />
    <path d="M73 1204.5C73 1205.33 72.3285 1206 71.5 1206L71.5 1206C70.6715 1206 70 1205.33 70 1204.5L70 1181.5C70 1180.67 70.6715 1180 71.5 1180L71.5 1180C72.3285 1180 73 1180.67 73 1181.5L73 1204.5Z" id="Rectangle-57" fill="#48B33A" stroke="none" />
    <path d="M-67.7903 415.21L-45.1629 392.582L94.8443 532.589L72.2169 555.217L-67.7903 415.21Z" id="Rectangle-52" fill="#CBEA9D" fill-rule="evenodd" stroke="none" />
    <path d="M39.2028 929.839C39.7887 930.425 39.7887 931.375 39.2028 931.961L39.2028 931.961C38.6169 932.547 37.6674 932.547 37.0815 931.961L25.0607 919.94C24.4748 919.354 24.4748 918.404 25.0607 917.819L25.0607 917.819C25.6465 917.233 26.5961 917.233 27.182 917.819L39.2028 929.839Z" id="Rectangle-80" fill="#48B33A" stroke="none" />
    <path d="M-42.3345 349.665L-19.7071 327.038L94.8442 441.589L72.2168 464.217L-42.3345 349.665Z" id="Rectangle-53" fill="#CBEA9D" fill-rule="evenodd" stroke="none" />
    <path d="M-30.6309 544.541L-8.00344 521.913L100.184 630.101L77.5565 652.728L-30.6309 544.541Z" id="Rectangle-58" fill="#CBEA9D" fill-rule="evenodd" stroke="none" />
    <path d="M-27 275L-4.37258 252.373L105.229 361.974L82.6015 384.602L-27 275Z" id="Rectangle-54" fill="#CBEA9D" fill-rule="evenodd" stroke="none" />
    <path d="M70 319L150 319L150 693L70 693L70 319Z" id="Rectangle-55" fill="#32682B" fill-rule="evenodd" stroke="none" />
    <path d="M73 600.5C73 601.329 72.3285 602 71.5 602L71.5 602C70.6715 602 70 601.329 70 600.5L70 523.5C70 522.671 70.6715 522 71.5 522L71.5 522C72.3285 522 73 522.671 73 523.5L73 600.5Z" id="Rectangle-56" fill="#48B33A" stroke="none" />
    <path d="M73 438.5C73 439.329 72.3285 440 71.5 440L71.5 440C70.6715 440 70 439.329 70 438.5L70 396.5C70 395.671 70.6715 395 71.5 395L71.5 395C72.3285 395 73 395.671 73 396.5L73 438.5Z" id="Rectangle-59" fill="#48B33A" stroke="none" />
    <path d="M73 338.5C73 339.329 72.3285 340 71.5 340L71.5 340C70.6715 340 70 339.329 70 338.5L70 315.5C70 314.671 70.6715 314 71.5 314L71.5 314C72.3285 314 73 314.671 73 315.5L73 338.5Z" id="Rectangle-57" fill="#48B33A" stroke="none" />
    <path d="M618 222.927L640.627 200.3L780.635 340.307L758.007 362.935L618 222.927Z" id="Rectangle-58" fill="#CBEA9D" fill-rule="evenodd" stroke="none" />
    <path d="M620.352 318.279L642.979 295.652L785.815 438.487L763.187 461.115L620.352 318.279Z" id="Rectangle-60" fill="#CBEA9D" fill-rule="evenodd" stroke="none" />
    <path d="M613.537 125.464L636.165 102.837L776.172 242.844L753.544 265.472L613.537 125.464Z" id="Rectangle-68" fill="#CBEA9D" fill-rule="evenodd" stroke="none" />
    <path d="M734.373 880.572L757 903.199L638.913 1021.29L616.286 998.658L734.373 880.572Z" id="Rectangle-67" fill="#CBEA9D" fill-rule="evenodd" stroke="none" />
    <path d="M724.373 1065.29L747 1087.91L628.913 1206L606.286 1183.37L724.373 1065.29Z" id="Rectangle-73" fill="#CBEA9D" fill-rule="evenodd" stroke="none" />
    <path d="M724.373 981.886L747 1004.51L628.913 1122.6L606.286 1099.97L724.373 981.886Z" id="Rectangle-70" fill="#CBEA9D" fill-rule="evenodd" stroke="none" />
    <path d="M566 873L646 873L646 1258L566 1258L566 873Z" id="Rectangle-66" fill="#32682B" fill-rule="evenodd" stroke="none" />
    <path d="M562 51L642 51L642 436L562 436L562 51Z" id="Rectangle-74" fill="#32682B" fill-rule="evenodd" stroke="none" />
    <path d="M642 341.1C642 341.929 641.329 342.6 640.5 342.6L640.5 342.6C639.671 342.6 639 341.929 639 341.1L639 289.1C639 288.271 639.671 287.6 640.5 287.6L640.5 287.6C641.329 287.6 642 288.271 642 289.1L642 341.1Z" id="Rectangle-75" fill="#48B33A" stroke="none" />
    <path d="M642 215.5C642 216.329 641.329 217 640.5 217L640.5 217C639.671 217 639 216.329 639 215.5L639 198.5C639 197.671 639.671 197 640.5 197L640.5 197C641.329 197 642 197.671 642 198.5L642 215.5Z" id="Rectangle-76" fill="#48B33A" stroke="none" />
    <path d="M642 158.5C642 159.329 641.329 160 640.5 160L640.5 160C639.671 160 639 159.329 639 158.5L639 141.5C639 140.671 639.671 140 640.5 140L640.5 140C641.329 140 642 140.671 642 141.5L642 158.5Z" id="Rectangle-77" fill="#48B33A" stroke="none" />
    <path d="M646 1198.5C646 1199.33 645.329 1200 644.5 1200L644.5 1200C643.671 1200 643 1199.33 643 1198.5L643 1091.5C643 1090.67 643.671 1090 644.5 1090L644.5 1090C645.329 1090 646 1090.67 646 1091.5L646 1198.5Z" id="Rectangle-76" fill="#48B33A" stroke="none" />
    <path d="M646 998.5C646 999.329 645.329 1000 644.5 1000L644.5 1000C643.671 1000 643 999.329 643 998.5L643 961.5C643 960.671 643.671 960 644.5 960L644.5 960C645.329 960 646 960.671 646 961.5L646 998.5Z" id="Rectangle-78" fill="#48B33A" stroke="none" />
    <path d="M65 60C65 57.2386 67.2386 55 70 55C72.7614 55 75 57.2386 75 60C75 62.7614 72.7614 65 70 65C67.2386 65 65 62.7614 65 60Z" id="Oval-2" fill="#48B33A" fill-rule="evenodd" stroke="none" />
    <path d="M85 43C85 40.2386 87.2386 38 90 38C92.7614 38 95 40.2386 95 43C95 45.7614 92.7614 48 90 48C87.2386 48 85 45.7614 85 43Z" id="Oval-3" fill="#48B33A" fill-rule="evenodd" stroke="none" />
    <path d="M646 735.1L660 735.1L660 749.1L646 749.1L646 735.1Z" id="Rectangle-60" fill="#48B33A" fill-rule="evenodd" stroke="none" />
    <path d="M646 693L660 693L660 707L646 707L646 693Z" id="Rectangle-79" fill="#48B33A" fill-rule="evenodd" stroke="none" />
    <path d="M37.0815 917.819C37.6673 917.233 38.6169 917.233 39.2028 917.819L39.2028 917.819C39.7887 918.404 39.7887 919.354 39.2028 919.94L27.182 931.961C26.5961 932.547 25.6465 932.547 25.0607 931.961L25.0607 931.961C24.4748 931.375 24.4748 930.425 25.0607 929.839L37.0815 917.819Z" id="Rectangle-41" fill="#48B33A" stroke="none" />
    <path d="M691.203 477.224C691.788 477.809 691.788 478.759 691.203 479.345L691.203 479.345C690.617 479.931 689.667 479.931 689.081 479.345L677.06 467.324C676.475 466.738 676.475 465.789 677.06 465.203L677.06 465.203C677.646 464.617 678.596 464.617 679.182 465.203L691.203 477.224Z" id="Rectangle-81" fill="#48B33A" stroke="none" />
    <path d="M689.203 465.061C689.788 464.475 690.738 464.475 691.324 465.061L691.324 465.061C691.91 465.646 691.91 466.596 691.324 467.182L679.303 479.203C678.717 479.789 677.768 479.789 677.182 479.203L677.182 479.203C676.596 478.617 676.596 477.667 677.182 477.081L689.203 465.061Z" id="Rectangle-82" fill="#48B33A" stroke="none" />
    <path d="M500 1250.5L515 1243L515 1258L500 1250.5Z" id="Triangle-7" fill="#48B33A" fill-rule="evenodd" stroke="none" />
    <path d="M566 1228.5L551 1236L551 1221L566 1228.5Z" id="Triangle-8" fill="#48B33A" fill-rule="evenodd" stroke="none" />
  </g>
</svg>