<?xml version="1.0" encoding="utf-8"?>
<svg width="720px" height="1280px" viewBox="0 0 720 1280" version="1.1" xmlns:xlink="http://www.w3.org/1999/xlink" xmlns="http://www.w3.org/2000/svg">
  <defs>
    <path d="M720 0L720 0L720 1280L0 1280L0 0L720 0Z" id="path_1" />
    <clipPath id="clip_1">
      <use xlink:href="#path_1" clip-rule="evenodd" fill-rule="evenodd" />
    </clipPath>
  </defs>
  <g id="Frame 4" clip-path="url(#clip_1)">
    <path d="M720 0L720 0L720 1280L0 1280L0 0L720 0Z" id="Frame-4" fill="#32682B" stroke="none" />
    <path d="M546.939 51.818C547.525 52.4039 547.525 53.3535 546.939 53.9394L546.939 53.9394C546.354 54.5252 545.404 54.5252 544.818 53.9394L532.797 41.9186C532.211 41.3327 532.211 40.3831 532.797 39.7972L532.797 39.7972C533.383 39.2114 534.333 39.2114 534.919 39.7972L546.939 51.818Z" id="Rectangle-80" fill="#48B33A" stroke="none" />
    <path d="M544.818 39.7972C545.404 39.2113 546.354 39.2113 546.939 39.7972L546.939 39.7972C547.525 40.3831 547.525 41.3326 546.939 41.9185L534.919 53.9393C534.333 54.5252 533.383 54.5252 532.797 53.9393L532.797 53.9393C532.211 53.3535 532.211 52.4039 532.797 51.818L544.818 39.7972Z" id="Rectangle-41" fill="#48B33A" stroke="none" />
    <path d="M672.603 910.224C673.189 910.81 673.189 911.759 672.603 912.345L672.603 912.345C672.017 912.931 671.067 912.931 670.481 912.345L658.461 900.324C657.875 899.738 657.875 898.789 658.461 898.203L658.461 898.203C659.046 897.617 659.996 897.617 660.582 898.203L672.603 910.224Z" id="Rectangle-81" fill="#48B33A" stroke="none" />
    <path d="M670.603 898.061C671.189 897.475 672.138 897.475 672.724 898.061L672.724 898.061C673.31 898.647 673.31 899.596 672.724 900.182L660.703 912.203C660.117 912.789 659.168 912.789 658.582 912.203L658.582 912.203C657.996 911.617 657.996 910.667 658.582 910.082L670.603 898.061Z" id="Rectangle-82" fill="#48B33A" stroke="none" />
    <path d="M53 191.5C53 192.329 52.3285 193 51.5 193L51.5 193C50.6715 193 50 192.329 50 191.5L50 149.5C50 148.671 50.6715 148 51.5 148L51.5 148C52.3285 148 53 148.671 53 149.5L53 191.5Z" id="Rectangle-59" fill="#48B33A" stroke="none" />
    <path d="M757.373 0L780 22.6274L620.194 182.434L597.566 159.806L757.373 0Z" id="Rectangle-67" fill="#CBEA9D" fill-rule="evenodd" stroke="none" />
    <path d="M748 97.8142L770.627 120.442L615.771 275.298L593.144 252.671L748 97.8142Z" id="Rectangle-70" fill="#CBEA9D" fill-rule="evenodd" stroke="none" />
    <path d="M-46 352.4L-23.3726 329.773L119.463 472.608L96.8356 495.236L-46 352.4Z" id="Rectangle-94" fill="#CBEA9D" fill-rule="evenodd" stroke="none" />
    <path d="M657 626L671 626L671 640L657 640L657 626Z" id="Rectangle-79" fill="#48B33A" fill-rule="evenodd" stroke="none" />
    <path d="M36 765.7L50 765.7L50 779.7L36 779.7L36 765.7Z" id="Rectangle-123" fill="#48B33A" fill-rule="evenodd" stroke="none" />
    <path d="M36 698.4L50 698.4L50 712.4L36 712.4L36 698.4Z" id="Rectangle-124" fill="#48B33A" fill-rule="evenodd" stroke="none" />
    <path d="M87 405.4L152 405.4L152 510.4L87 510.4L87 405.4Z" id="Rectangle-98" fill="#32682B" fill-rule="evenodd" stroke="none" />
    <path d="M89.9998 457.9C89.9998 458.728 89.3283 459.4 88.4998 459.4L88.4998 459.4C87.6712 459.4 86.9998 458.728 86.9998 457.9L86.9998 440.9C86.9998 440.071 87.6712 439.4 88.4998 439.4L88.4998 439.4C89.3283 439.4 89.9998 440.071 89.9998 440.9L89.9998 457.9Z" id="Rectangle-107" fill="#48B33A" stroke="none" />
    <path d="M87 369L152 369L152 474L87 474L87 369Z" id="Rectangle-109" fill="#32682B" fill-rule="evenodd" stroke="none" />
    <path d="M90 421.5C90 422.329 89.3285 423 88.5 423L88.5 423C87.6715 423 87 422.329 87 421.5L87 404.5C87 403.671 87.6715 403 88.5 403L88.5 403C89.3285 403 90 403.671 90 404.5L90 421.5Z" id="Rectangle-110" fill="#48B33A" stroke="none" />
    <path d="M-46 274.9L-23.3726 252.273L119.463 395.108L96.8356 417.736L-46 274.9Z" id="Rectangle-111" fill="#CBEA9D" fill-rule="evenodd" stroke="none" />
    <path d="M87 327.9L152 327.9L152 432.9L87 432.9L87 327.9Z" id="Rectangle-112" fill="#32682B" fill-rule="evenodd" stroke="none" />
    <path d="M90 380.4C90 381.229 89.3285 381.9 88.5 381.9L88.5 381.9C87.6715 381.9 87 381.229 87 380.4L87 363.4C87 362.571 87.6715 361.9 88.5 361.9L88.5 361.9C89.3285 361.9 90 362.571 90 363.4L90 380.4Z" id="Rectangle-113" fill="#48B33A" stroke="none" />
    <path d="M50.2856 963.6C50.2856 964.429 49.6142 965.1 48.7856 965.1L48.7856 965.1C47.9571 965.1 47.2856 964.429 47.2856 963.6L47.2856 940.6C47.2856 939.771 47.9571 939.1 48.7856 939.1L48.7856 939.1C49.6142 939.1 50.2856 939.771 50.2856 940.6L50.2856 963.6Z" id="Rectangle-65" fill="#48B33A" stroke="none" />
    <path d="M637.286 1158.5C637.286 1159.33 636.614 1160 635.786 1160L635.786 1160C634.957 1160 634.286 1159.33 634.286 1158.5L634.286 1119.5C634.286 1118.67 634.957 1118 635.786 1118L635.786 1118C636.614 1118 637.286 1118.67 637.286 1119.5L637.286 1158.5Z" id="Rectangle-104" fill="#48B33A" stroke="none" />
    <path d="M617.365 364.593L639.993 341.965L780 481.972L757.373 504.6L617.365 364.593Z" id="Rectangle-116" fill="#CBEA9D" fill-rule="evenodd" stroke="none" />
    <path d="M604.365 444.593L626.993 421.965L767 561.972L744.373 584.6L604.365 444.593Z" id="Rectangle-117" fill="#CBEA9D" fill-rule="evenodd" stroke="none" />
    <path d="M608.173 355.308L630.801 332.68L780 481.88L757.373 504.507L608.173 355.308Z" id="Rectangle-118" fill="#CBEA9D" fill-rule="evenodd" stroke="none" />
    <path d="M604.365 444.593L626.993 421.965L767 561.972L744.373 584.6L604.365 444.593Z" id="Rectangle-119" fill="#CBEA9D" fill-rule="evenodd" stroke="none" />
    <path d="M591.365 19.5999L637.365 19.5999L637.365 531.6L591.365 531.6L591.365 19.5999Z" id="Rectangle-97" fill="#32682B" fill-rule="evenodd" stroke="none" />
    <path d="M591.365 328.6L637.365 328.6L637.365 543.6L591.365 543.6L591.365 328.6Z" id="Rectangle-120" fill="#32682B" fill-rule="evenodd" stroke="none" />
    <path d="M60.5 1132L68 1147L53 1147L60.5 1132Z" id="Triangle-7" fill="#48B33A" fill-rule="evenodd" stroke="none" />
    <path d="M636 258.5C636 259.329 635.329 260 634.5 260L634.5 260C633.671 260 633 259.329 633 258.5L633 216.5C633 215.672 633.671 215 634.5 215L634.5 215C635.329 215 636 215.672 636 216.5L636 258.5Z" id="Rectangle-121" fill="#48B33A" stroke="none" />
    <path d="M637.365 488.1C637.365 488.928 636.694 489.6 635.865 489.6L635.865 489.6C635.037 489.6 634.365 488.928 634.365 488.1L634.365 421.1C634.365 420.271 635.037 419.6 635.865 419.6L635.865 419.6C636.694 419.6 637.365 420.271 637.365 421.1L637.365 488.1Z" id="Rectangle-122" fill="#48B33A" stroke="none" />
    <path d="M648.9 1197.1L662.9 1197.1L662.9 1211.1L648.9 1211.1L648.9 1197.1Z" id="Rectangle-126" fill="#48B33A" fill-rule="evenodd" stroke="none" />
    <path d="M608.9 936.1L631.527 913.473L771.534 1053.48L748.907 1076.11L608.9 936.1Z" id="Rectangle-127" fill="#CBEA9D" fill-rule="evenodd" stroke="none" />
    <path d="M595.9 1016.1L618.527 993.473L758.534 1133.48L735.907 1156.11L595.9 1016.1Z" id="Rectangle-128" fill="#CBEA9D" fill-rule="evenodd" stroke="none" />
    <path d="M599.9 926.1L622.527 903.473L771.727 1052.67L749.099 1075.3L599.9 926.1Z" id="Rectangle-129" fill="#CBEA9D" fill-rule="evenodd" stroke="none" />
    <path d="M595.9 1016.1L618.527 993.473L758.534 1133.48L735.907 1156.11L595.9 1016.1Z" id="Rectangle-130" fill="#CBEA9D" fill-rule="evenodd" stroke="none" />
    <path d="M582.9 591.1L628.9 591.1L628.9 1103.1L582.9 1103.1L582.9 591.1Z" id="Rectangle-131" fill="#32682B" fill-rule="evenodd" stroke="none" />
    <path d="M582.9 900.1L628.9 900.1L628.9 1115.1L582.9 1115.1L582.9 900.1Z" id="Rectangle-132" fill="#32682B" fill-rule="evenodd" stroke="none" />
    <path d="M629 954.5C629 955.329 628.329 956 627.5 956L627.5 956C626.671 956 626 955.329 626 954.5L626 922.5C626 921.671 626.671 921 627.5 921L627.5 921C628.329 921 629 921.671 629 922.5L629 954.5Z" id="Rectangle-133" fill="#48B33A" stroke="none" />
    <path d="M671 296.7C671 293.939 673.239 291.7 676 291.7C678.761 291.7 681 293.939 681 296.7C681 299.461 678.761 301.7 676 301.7C673.239 301.7 671 299.461 671 296.7Z" id="Oval-3" fill="#48B33A" fill-rule="evenodd" stroke="none" />
    <path d="M652 1002C652 999.239 654.239 997 657 997C659.761 997 662 999.239 662 1002C662 1004.76 659.761 1007 657 1007C654.239 1007 652 1004.76 652 1002Z" id="Oval-2" fill="#48B33A" fill-rule="evenodd" stroke="none" />
    <path d="M109.477 10.5233L132.104 33.1507L-23.4595 188.714L-46.0869 166.087L109.477 10.5233Z" id="Rectangle-75" fill="#CBEA9D" fill-rule="evenodd" stroke="none" />
    <path d="M87 10.5L152 10.5L152 115.5L87 115.5L87 10.5Z" id="Rectangle-125" fill="#32682B" fill-rule="evenodd" stroke="none" />
  </g>
</svg>