<?xml version="1.0" encoding="utf-8"?>
<svg width="720px" height="1280px" viewBox="0 0 720 1280" version="1.1" xmlns:xlink="http://www.w3.org/1999/xlink" xmlns="http://www.w3.org/2000/svg">
  <defs>
    <path d="M720 0L720 0L720 1280L0 1280L0 0L720 0Z" id="path_1" />
    <clipPath id="clip_1">
      <use xlink:href="#path_1" clip-rule="evenodd" fill-rule="evenodd" />
    </clipPath>
  </defs>
  <g id="Frame 4" clip-path="url(#clip_1)">
    <path d="M720 0L720 0L720 1280L0 1280L0 0L720 0Z" id="Frame-4" fill="#32682B" stroke="none" />
    <path d="M675.203 796.081C675.789 796.667 675.789 797.617 675.203 798.203L675.203 798.203C674.617 798.789 673.667 798.789 673.081 798.203L661.061 786.182C660.475 785.596 660.475 784.647 661.061 784.061L661.061 784.061C661.647 783.475 662.596 783.475 663.182 784.061L675.203 796.081Z" id="Rectangle-80" fill="#48B33A" stroke="none" />
    <path d="M599 1009L621.627 986.373L761.635 1126.38L739.007 1149.01L599 1009Z" id="Rectangle-86" fill="#CBEA9D" fill-rule="evenodd" stroke="none" />
    <path d="M76.563 1103.39C76.563 1104.21 75.8915 1104.89 75.063 1104.89L75.063 1104.89C74.2345 1104.89 73.563 1104.21 73.563 1103.39L73.563 1080.39C73.563 1079.56 74.2345 1078.89 75.063 1078.89L75.063 1078.89C75.8915 1078.89 76.563 1079.56 76.563 1080.39L76.563 1103.39Z" id="Rectangle-65" fill="#48B33A" stroke="none" />
    <path d="M107 45.5C107.829 45.5 108.5 46.1715 108.5 47L108.5 47C108.5 47.8285 107.829 48.5 107 48.5L90 48.5C89.1715 48.5 88.5 47.8285 88.5 47L88.5 47C88.5 46.1715 89.1715 45.5 90 45.5L107 45.5Z" id="Rectangle-77" fill="#48B33A" stroke="none" />
    <path d="M580 31C580 28.2386 582.239 26 585 26C587.762 26 590 28.2386 590 31C590 33.7614 587.762 36 585 36C582.239 36 580 33.7614 580 31Z" id="Oval-3" fill="#48B33A" fill-rule="evenodd" stroke="none" />
    <path d="M26.6001 177L40.6001 177L40.6001 191L26.6001 191L26.6001 177Z" id="Rectangle-79" fill="#48B33A" fill-rule="evenodd" stroke="none" />
    <path d="M74 177L88 177L88 191L74 191L74 177Z" id="Rectangle-93" fill="#48B33A" fill-rule="evenodd" stroke="none" />
    <path d="M673.081 784.061C673.667 783.475 674.617 783.475 675.203 784.061L675.203 784.061C675.789 784.646 675.789 785.596 675.203 786.182L663.182 798.203C662.596 798.789 661.647 798.789 661.061 798.203L661.061 798.203C660.475 797.617 660.475 796.667 661.061 796.081L673.081 784.061Z" id="Rectangle-41" fill="#48B33A" stroke="none" />
    <path d="M675.203 845.081C675.789 845.667 675.789 846.617 675.203 847.203L675.203 847.203C674.617 847.789 673.667 847.789 673.081 847.203L661.061 835.182C660.475 834.596 660.475 833.647 661.061 833.061L661.061 833.061C661.647 832.475 662.596 832.475 663.182 833.061L675.203 845.081Z" id="Rectangle-81" fill="#48B33A" stroke="none" />
    <path d="M673.203 832.919C673.789 832.333 674.738 832.333 675.324 832.919L675.324 832.919C675.91 833.504 675.91 834.454 675.324 835.04L663.303 847.061C662.717 847.647 661.768 847.647 661.182 847.061L661.182 847.061C660.596 846.475 660.596 845.525 661.182 844.939L673.203 832.919Z" id="Rectangle-82" fill="#48B33A" stroke="none" />
    <path d="M677.5 358.4L670 343.4L685 343.4L677.5 358.4Z" id="Triangle-8" fill="#48B33A" fill-rule="evenodd" stroke="none" />
    <path d="M700 548.6C700 549.429 699.329 550.1 698.5 550.1L698.5 550.1C697.671 550.1 697 549.429 697 548.6L697 506.6C697 505.771 697.671 505.1 698.5 505.1L698.5 505.1C699.329 505.1 700 505.771 700 506.6L700 548.6Z" id="Rectangle-59" fill="#48B33A" stroke="none" />
    <path d="M486.771 1217L509.398 1194.37L619 1303.97L596.373 1326.6L486.771 1217Z" id="Rectangle-54" fill="#CBEA9D" fill-rule="evenodd" stroke="none" />
    <path d="M572.771 1216.63L595.398 1194L705 1303.6L682.373 1326.23L572.771 1216.63Z" id="Rectangle-85" fill="#CBEA9D" fill-rule="evenodd" stroke="none" />
    <path d="M101.087 730L123.714 752.627L5.6275 870.714L-16.9999 848.087L101.087 730Z" id="Rectangle-67" fill="#CBEA9D" fill-rule="evenodd" stroke="none" />
    <path d="M91.0869 831.314L113.714 853.942L-4.3725 972.028L-26.9999 949.401L91.0869 831.314Z" id="Rectangle-70" fill="#CBEA9D" fill-rule="evenodd" stroke="none" />
    <path d="M92.0872 448.286L114.715 470.913L-3.37225 589L-25.9997 566.373L92.0872 448.286Z" id="Rectangle-75" fill="#CBEA9D" fill-rule="evenodd" stroke="none" />
    <path d="M92.0872 365.286L114.715 387.913L-3.37225 506L-25.9997 483.373L92.0872 365.286Z" id="Rectangle-76" fill="#CBEA9D" fill-rule="evenodd" stroke="none" />
    <path d="M619 935L641.627 912.373L784.463 1055.21L761.836 1077.84L619 935Z" id="Rectangle-60" fill="#CBEA9D" fill-rule="evenodd" stroke="none" />
    <path d="M752 136.173L774.627 158.8L634.62 298.807L611.993 276.18L752 136.173Z" id="Rectangle-58" fill="#CBEA9D" fill-rule="evenodd" stroke="none" />
    <path d="M552 886L657 886L657 1096L552 1096L552 886Z" id="Rectangle-87" fill="#32682B" fill-rule="evenodd" stroke="none" />
    <path d="M552 200L657 200L657 347L552 347L552 200Z" id="Rectangle-88" fill="#32682B" fill-rule="evenodd" stroke="none" />
    <path d="M657 245.5C657 246.329 656.329 247 655.5 247L655.5 247C654.672 247 654 246.329 654 245.5L654 218.5C654 217.672 654.672 217 655.5 217L655.5 217C656.329 217 657 217.672 657 218.5L657 245.5Z" id="Rectangle-101" fill="#48B33A" stroke="none" />
    <path d="M87 326L192 326L192 522L87 522L87 326Z" id="Rectangle-89" fill="#32682B" fill-rule="evenodd" stroke="none" />
    <path d="M90 484.5C90 485.329 89.3285 486 88.5 486L88.5 486C87.6715 486 87 485.329 87 484.5L87 442.5C87 441.672 87.6715 441 88.5 441L88.5 441C89.3285 441 90 441.672 90 442.5L90 484.5Z" id="Rectangle-94" fill="#48B33A" stroke="none" />
    <path d="M89 661L194 661L194 986L89 986L89 661Z" id="Rectangle-92" fill="#32682B" fill-rule="evenodd" stroke="none" />
    <path d="M92 888.5C92 889.329 91.3285 890 90.5 890L90.5 890C89.6715 890 89 889.329 89 888.5L89 866.5C89 865.671 89.6715 865 90.5 865L90.5 865C91.3285 865 92 865.671 92 866.5L92 888.5Z" id="Rectangle-95" fill="#48B33A" stroke="none" />
    <path d="M92 781.5C92 782.329 91.3285 783 90.5 783L90.5 783C89.6715 783 89 782.329 89 781.5L89 752.5C89 751.671 89.6715 751 90.5 751L90.5 751C91.3285 751 92 751.671 92 752.5L92 781.5Z" id="Rectangle-96" fill="#48B33A" stroke="none" />
    <path d="M41.1997 689.9L48.6997 704.9L33.6997 704.9L41.1997 689.9Z" id="Triangle-7" fill="#48B33A" fill-rule="evenodd" stroke="none" />
    <path d="M437.714 1174.3L630.714 1174.3L630.714 1219.3L437.714 1219.3L437.714 1174.3Z" id="Rectangle-90" fill="#32682B" fill-rule="evenodd" stroke="none" />
    <path d="M77.771 -26.3726L100.398 -49L210 60.6015L187.373 83.229L77.771 -26.3726Z" id="Rectangle-86" fill="#CBEA9D" fill-rule="evenodd" stroke="none" />
    <path d="M163.771 -26.3726L186.398 -49L296 60.6015L273.373 83.229L163.771 -26.3726Z" id="Rectangle-87" fill="#CBEA9D" fill-rule="evenodd" stroke="none" />
    <path d="M53 1144C53 1141.24 55.2386 1139 58 1139C60.7614 1139 63 1141.24 63 1144C63 1146.76 60.7614 1149 58 1149C55.2386 1149 53 1146.76 53 1144Z" id="Oval-2" fill="#48B33A" fill-rule="evenodd" stroke="none" />
    <path d="M133 56L326 56L326 101L133 101L133 56Z" id="Rectangle-91" fill="#32682B" fill-rule="evenodd" stroke="none" />
    <path d="M189.5 56C190.329 56 191 56.6715 191 57.5L191 57.5C191 58.3285 190.329 59 189.5 59L172.5 59C171.671 59 171 58.3285 171 57.5L171 57.5C171 56.6715 171.671 56 172.5 56L189.5 56Z" id="Rectangle-102" fill="#48B33A" stroke="none" />
    <path d="M312.5 56C313.329 56 314 56.6715 314 57.5L314 57.5C314 58.3285 313.329 59 312.5 59L235.5 59C234.671 59 234 58.3285 234 57.5L234 57.5C234 56.6715 234.671 56 235.5 56L312.5 56Z" id="Rectangle-103" fill="#48B33A" stroke="none" />
    <path d="M657 1048.5C657 1049.33 656.329 1050 655.5 1050L655.5 1050C654.671 1050 654 1049.33 654 1048.5L654 1008.5C654 1007.67 654.671 1007 655.5 1007L655.5 1007C656.329 1007 657 1007.67 657 1008.5L657 1048.5Z" id="Rectangle-97" fill="#48B33A" stroke="none" />
    <path d="M603.5 1216C604.328 1216 605 1216.67 605 1217.5L605 1217.5C605 1218.33 604.328 1219 603.5 1219L563.5 1219C562.671 1219 562 1218.33 562 1217.5L562 1217.5C562 1216.67 562.671 1216 563.5 1216L603.5 1216Z" id="Rectangle-99" fill="#48B33A" stroke="none" />
    <path d="M545.5 1216C546.329 1216 547 1216.67 547 1217.5L547 1217.5C547 1218.33 546.329 1219 545.5 1219L523.5 1219C522.671 1219 522 1218.33 522 1217.5L522 1217.5C522 1216.67 522.671 1216 523.5 1216L545.5 1216Z" id="Rectangle-100" fill="#48B33A" stroke="none" />
    <path d="M657 974.5C657 975.329 656.329 976 655.5 976L655.5 976C654.671 976 654 975.329 654 974.5L654 967.5C654 966.671 654.671 966 655.5 966L655.5 966C656.329 966 657 966.671 657 967.5L657 974.5Z" id="Rectangle-98" fill="#48B33A" stroke="none" />
  </g>
</svg>