<?xml version="1.0" encoding="utf-8"?>
<svg width="300px" height="300px" viewBox="0 0 300 300" version="1.1" xmlns:xlink="http://www.w3.org/1999/xlink" xmlns="http://www.w3.org/2000/svg">
  <defs>
    <path d="M206 0L206 0L206 197L0 197L0 0L206 0Z" id="path_1" />
    <clipPath id="clip_1">
      <use xlink:href="#path_1" clip-rule="evenodd" fill-rule="evenodd" />
    </clipPath>
  </defs>
  <path d="M0 150C0 67.1572 67.1572 0 150 0C232.843 0 300 67.1572 300 150C300 232.843 232.843 300 150 300C67.1572 300 0 232.843 0 150Z" id="Oval" fill="#4398A0" fill-rule="evenodd" stroke="none" />
  <g id="sea-monster-kraken-svgrepo-com" clip-path="url(#clip_1)" transform="translate(47.02588 55)">
    <path d="M206 0L206 0L206 197L0 197L0 0L206 0Z" id="sea-monster-kraken-svgrepo-com" fill="none" stroke="none" />
    <path d="M169.786 76.3087L137.819 9.71302C136.115 6.15937 132.796 3.57361 128.817 2.69578C124.837 1.82372 120.663 2.75581 117.507 5.23921L58.3058 51.7568C55.8479 53.6872 54.8481 56.8441 55.7598 59.7604C56.6776 62.6768 59.3242 64.7815 62.4866 65.1001L74.4374 66.3147L57.1805 105.364C56.2688 107.421 56.3633 109.754 57.4255 111.744C57.9284 112.7 60.9211 115.364 64.1523 117.938C60.7827 126.068 53.1003 146.651 59.1608 152.213C76.3296 167.956 133.575 166.585 134.286 149.477L133.733 133.025C137.473 132.508 141.987 131.48 143.163 130.626C145.024 129.285 146.168 127.223 146.294 124.992L148.626 82.6528L159.923 86.5613C162.922 87.5958 166.266 86.8138 168.422 84.5771C170.578 82.3338 171.119 79.075 169.786 76.3087L169.786 76.3087ZM69.3135 146.904C66.3084 146.904 63.8694 144.577 63.8694 141.702C63.8694 138.834 66.3088 136.507 69.3135 136.507C72.3122 136.507 74.7452 138.834 74.7452 141.702C74.7452 144.577 72.3122 146.904 69.3135 146.904L69.3135 146.904ZM116.199 153.362C113.2 153.362 110.761 151.035 110.761 148.166C110.761 145.292 113.2 142.965 116.199 142.965C119.204 142.965 121.637 145.292 121.637 148.166C121.637 151.035 119.204 153.362 116.199 153.362L116.199 153.362ZM29.4749 63.3546C37.1195 73.5849 34.171 86.6882 19.7873 105.279C0.921396 129.653 -1.12815 152.079 0.405592 162.316C1.93329 172.558 25.3948 170.117 26.4135 163.295C28.1424 151.67 17.2916 145.077 36.1075 107.227C50.8873 77.4857 39.1565 61.8881 35.0828 57.987C31.0091 54.0921 25.8981 59.9405 29.4749 63.3546L29.4749 63.3546ZM202.879 96.883C197.29 85.12 186.665 85.12 193.38 99.023C206.236 122.014 162.06 128.428 164.298 156.233C164.726 161.589 184.899 163.53 187.225 157.303C190.022 149.814 185.546 147.145 196.737 134.847C206.613 123.992 208.48 108.646 202.879 96.883L202.879 96.883ZM149.757 154.508C151.435 170.551 134.16 179.296 134.449 188.595C134.663 195.411 150.178 197.016 152.485 190.398C158.345 174.89 158.583 160.663 155.842 153.504C153.478 147.337 148.978 147.085 149.757 154.508L149.757 154.508Z" id="Group" fill="#FFFFFF" fill-rule="evenodd" stroke="none" />
  </g>
</svg>