<?xml version="1.0" encoding="utf-8"?>
<svg width="128px" height="284px" viewBox="0 0 128 284" version="1.1" xmlns:xlink="http://www.w3.org/1999/xlink" xmlns="http://www.w3.org/2000/svg">
  <defs>
    <path d="M128 0L128 0L128 284L0 284L0 0L128 0Z" id="path_1" />
    <clipPath id="clip_1">
      <use xlink:href="#path_1" clip-rule="evenodd" fill-rule="evenodd" />
    </clipPath>
  </defs>
  <g id="Frame 2" clip-path="url(#clip_1)">
    <path d="M128 0L128 0L128 284L0 284L0 0L128 0Z" id="Frame-2" fill="none" stroke="none" />
    <path d="M20.1758 132.708L7 90L123 90L109.775 132.868C102.527 142.419 94.3747 158.183 87.6237 176.731C77.8537 203.574 74.0806 227.836 77.629 237.065L65 278L52.6043 237.821C56.3963 228.875 52.6536 204.326 42.7543 177.128C35.8703 158.215 27.529 142.196 20.1758 132.708Z" id="Mask-Subtract" fill="#36D9D6" fill-rule="evenodd" stroke="none" />
    <path d="M7 90.5C7 53.7731 32.9675 24 65 24C97.0325 24 123 53.7731 123 90.5C123 127.227 97.0325 157 65 157C32.9675 157 7 127.227 7 90.5Z" id="Oval" fill="#36D9D6" fill-rule="evenodd" stroke="none" />
    <path d="M27 92.5C27 65.1619 44.0132 43 65 43C85.9868 43 103 65.1619 103 92.5C103 119.838 85.9868 142 65 142C44.0132 142 27 119.838 27 92.5Z" id="Oval-4" fill="#5CFFFB" fill-rule="evenodd" stroke="none" />
  </g>
</svg>