<?xml version="1.0" encoding="utf-8"?>
<svg width="720px" height="1280px" viewBox="0 0 720 1280" version="1.1" xmlns:xlink="http://www.w3.org/1999/xlink" xmlns="http://www.w3.org/2000/svg">
  <defs>
    <path d="M720 0L720 0L720 1280L0 1280L0 0L720 0Z" id="path_1" />
    <clipPath id="clip_1">
      <use xlink:href="#path_1" clip-rule="evenodd" fill-rule="evenodd" />
    </clipPath>
  </defs>
  <g id="Frame 4" clip-path="url(#clip_1)">
    <path d="M720 0L720 0L720 1280L0 1280L0 0L720 0Z" id="Frame-4" fill="#32682B" stroke="none" />
    <path d="M345.939 1254.82C346.525 1255.4 346.525 1256.35 345.939 1256.94L345.939 1256.94C345.354 1257.53 344.404 1257.53 343.818 1256.94L331.797 1244.92C331.211 1244.33 331.211 1243.38 331.797 1242.8L331.797 1242.8C332.383 1242.21 333.333 1242.21 333.919 1242.8L345.939 1254.82Z" id="Rectangle-80" fill="#48B33A" stroke="none" />
    <path d="M178 -6L200.627 -28.6274L310.229 80.9741L287.602 103.602L178 -6Z" id="Rectangle-54" fill="#CBEA9D" fill-rule="evenodd" stroke="none" />
    <path d="M264 -6.37259L286.627 -29L396.229 80.6015L373.602 103.229L264 -6.37259Z" id="Rectangle-85" fill="#CBEA9D" fill-rule="evenodd" stroke="none" />
    <path d="M350 -10L372.627 -32.6274L482.229 76.9741L459.602 99.6015L350 -10Z" id="Rectangle-87" fill="#CBEA9D" fill-rule="evenodd" stroke="none" />
    <path d="M618 222.927L640.627 200.3L780.635 340.307L758.007 362.935L618 222.927Z" id="Rectangle-58" fill="#CBEA9D" fill-rule="evenodd" stroke="none" />
    <path d="M620.352 318.279L642.979 295.652L785.815 438.487L763.187 461.115L620.352 318.279Z" id="Rectangle-60" fill="#CBEA9D" fill-rule="evenodd" stroke="none" />
    <path d="M613.537 125.464L636.165 102.837L776.172 242.844L753.544 265.472L613.537 125.464Z" id="Rectangle-68" fill="#CBEA9D" fill-rule="evenodd" stroke="none" />
    <path d="M107 45.5C107.829 45.5 108.5 46.1715 108.5 47L108.5 47C108.5 47.8285 107.829 48.5 107 48.5L90 48.5C89.1715 48.5 88.5 47.8285 88.5 47L88.5 47C88.5 46.1715 89.1715 45.5 90 45.5L107 45.5Z" id="Rectangle-77" fill="#48B33A" stroke="none" />
    <path d="M32 892.6C32 893.429 31.3285 894.1 30.5 894.1L30.5 894.1C29.6715 894.1 29 893.429 29 892.6L29 855.6C29 854.771 29.6715 854.1 30.5 854.1L30.5 854.1C31.3285 854.1 32 854.771 32 855.6L32 892.6Z" id="Rectangle-83" fill="#48B33A" stroke="none" />
    <path d="M542 51C542 48.2386 544.239 46 547 46C549.761 46 552 48.2386 552 51C552 53.7614 549.761 56 547 56C544.239 56 542 53.7614 542 51Z" id="Oval-2" fill="#48B33A" fill-rule="evenodd" stroke="none" />
    <path d="M580 31C580 28.2386 582.239 26 585 26C587.762 26 590 28.2386 590 31C590 33.7614 587.762 36 585 36C582.239 36 580 33.7614 580 31Z" id="Oval-3" fill="#48B33A" fill-rule="evenodd" stroke="none" />
    <path d="M26.6001 177L40.6001 177L40.6001 191L26.6001 191L26.6001 177Z" id="Rectangle-79" fill="#48B33A" fill-rule="evenodd" stroke="none" />
    <path d="M343.818 1242.8C344.404 1242.21 345.354 1242.21 345.939 1242.8L345.939 1242.8C346.525 1243.38 346.525 1244.33 345.939 1244.92L333.919 1256.94C333.333 1257.53 332.383 1257.53 331.797 1256.94L331.797 1256.94C331.211 1256.35 331.211 1255.4 331.797 1254.82L343.818 1242.8Z" id="Rectangle-41" fill="#48B33A" stroke="none" />
    <path d="M471.818 1254.82C472.404 1255.4 472.404 1256.35 471.818 1256.94L471.818 1256.94C471.232 1257.53 470.283 1257.53 469.697 1256.94L457.676 1244.92C457.09 1244.33 457.09 1243.38 457.676 1242.8L457.676 1242.8C458.262 1242.21 459.211 1242.21 459.797 1242.8L471.818 1254.82Z" id="Rectangle-81" fill="#48B33A" stroke="none" />
    <path d="M469.818 1242.66C470.404 1242.07 471.354 1242.07 471.939 1242.66L471.939 1242.66C472.525 1243.24 472.525 1244.19 471.939 1244.78L459.919 1256.8C459.333 1257.38 458.383 1257.38 457.797 1256.8L457.797 1256.8C457.211 1256.21 457.211 1255.26 457.797 1254.68L469.818 1242.66Z" id="Rectangle-82" fill="#48B33A" stroke="none" />
    <path d="M690.2 730.2L697.7 745.2L682.7 745.2L690.2 730.2Z" id="Triangle-7" fill="#48B33A" fill-rule="evenodd" stroke="none" />
    <path d="M676.5 712.3L669 697.3L684 697.3L676.5 712.3Z" id="Triangle-8" fill="#48B33A" fill-rule="evenodd" stroke="none" />
    <path d="M33 765.5L47 765.5L47 779.5L33 779.5L33 765.5Z" id="Rectangle-60" fill="#48B33A" fill-rule="evenodd" stroke="none" />
    <path d="M700 548.6C700 549.429 699.329 550.1 698.5 550.1L698.5 550.1C697.671 550.1 697 549.429 697 548.6L697 506.6C697 505.771 697.671 505.1 698.5 505.1L698.5 505.1C699.329 505.1 700 505.771 700 506.6L700 548.6Z" id="Rectangle-59" fill="#48B33A" stroke="none" />
    <path d="M731.087 995.286L753.714 1017.91L635.628 1136L613 1113.37L731.087 995.286Z" id="Rectangle-75" fill="#CBEA9D" fill-rule="evenodd" stroke="none" />
    <path d="M731.087 912.286L753.714 934.913L635.628 1053L613 1030.37L731.087 912.286Z" id="Rectangle-76" fill="#CBEA9D" fill-rule="evenodd" stroke="none" />
    <path d="M218 78L530 78L530 140L218 140L218 78Z" id="Rectangle-88" fill="#32682B" fill-rule="evenodd" stroke="none" />
    <path d="M590 103L652 103L652 413L590 413L590 103Z" id="Rectangle-89" fill="#32682B" fill-rule="evenodd" stroke="none" />
    <path d="M652 316.5C652 317.329 651.329 318 650.5 318L650.5 318C649.671 318 649 317.329 649 316.5L649 289.5C649 288.671 649.671 288 650.5 288L650.5 288C651.329 288 652 288.671 652 289.5L652 316.5Z" id="Rectangle-95" fill="#48B33A" stroke="none" />
    <path d="M652 201.5C652 202.329 651.329 203 650.5 203L650.5 203C649.671 203 649 202.329 649 201.5L649 148.5C649 147.671 649.671 147 650.5 147L650.5 147C651.329 147 652 147.671 652 148.5L652 201.5Z" id="Rectangle-96" fill="#48B33A" stroke="none" />
    <path d="M403.5 78C404.329 78 405 78.6715 405 79.5L405 79.5C405 80.3285 404.329 81 403.5 81L331.5 81C330.671 81 330 80.3285 330 79.5L330 79.5C330 78.6715 330.671 78 331.5 78L403.5 78Z" id="Rectangle-97" fill="#48B33A" stroke="none" />
    <path d="M272.5 78C273.329 78 274 78.6715 274 79.5L274 79.5C274 80.3285 273.329 81 272.5 81L250.5 81C249.671 81 249 80.3285 249 79.5L249 79.5C249 78.6715 249.671 78 250.5 78L272.5 78Z" id="Rectangle-98" fill="#48B33A" stroke="none" />
    <path d="M470.5 78C471.329 78 472 78.6715 472 79.5L472 79.5C472 80.3285 471.329 81 470.5 81L448.5 81C447.671 81 447 80.3285 447 79.5L447 79.5C447 78.6715 447.671 78 448.5 78L470.5 78Z" id="Rectangle-99" fill="#48B33A" stroke="none" />
    <path d="M583 982L645 982L645 1165L583 1165L583 982Z" id="Rectangle-90" fill="#32682B" fill-rule="evenodd" stroke="none" />
    <path d="M645 1089.5C645 1090.33 644.329 1091 643.5 1091L643.5 1091C642.671 1091 642 1090.33 642 1089.5L642 1022.5C642 1021.67 642.671 1021 643.5 1021L643.5 1021C644.329 1021 645 1021.67 645 1022.5L645 1089.5Z" id="Rectangle-94" fill="#48B33A" stroke="none" />
    <path d="M78.0869 954.572L100.714 977.199L-17.3725 1095.29L-39.9999 1072.66L78.0869 954.572Z" id="Rectangle-67" fill="#CBEA9D" fill-rule="evenodd" stroke="none" />
    <path d="M68.0869 1139.29L90.7143 1161.91L-27.3725 1280L-49.9999 1257.37L68.0869 1139.29Z" id="Rectangle-73" fill="#CBEA9D" fill-rule="evenodd" stroke="none" />
    <path d="M68.0869 1055.89L90.7143 1078.51L-27.3725 1196.6L-49.9999 1173.97L68.0869 1055.89Z" id="Rectangle-70" fill="#CBEA9D" fill-rule="evenodd" stroke="none" />
    <path d="M61 923L126 923L126 1242L61 1242L61 923Z" id="Rectangle-91" fill="#32682B" fill-rule="evenodd" stroke="none" />
    <path d="M64.0002 1091.5C64.0002 1092.33 63.3288 1093 62.5002 1093L62.5002 1093C61.6717 1093 61.0002 1092.33 61.0002 1091.5L61.0002 1054.5C61.0002 1053.67 61.6717 1053 62.5002 1053L62.5002 1053C63.3288 1053 64.0002 1053.67 64.0002 1054.5L64.0002 1091.5Z" id="Rectangle-92" fill="#48B33A" stroke="none" />
    <path d="M64 1223.5C64 1224.33 63.3285 1225 62.5 1225L62.5 1225C61.6715 1225 61 1224.33 61 1223.5L61 1176.5C61 1175.67 61.6715 1175 62.5 1175L62.5 1175C63.3285 1175 64 1175.67 64 1176.5L64 1223.5Z" id="Rectangle-93" fill="#48B33A" stroke="none" />
  </g>
</svg>